<svg width="18" height="24" viewBox="0 0 18 24" fill="none" xmlns="http://www.w3.org/2000/svg">
<g id="file-pdf 1" clip-path="url(#clip0_1541_329)">
<path id="Vector" d="M4.125 14.25H3.75V12H4.125C4.74844 12 5.25 12.5016 5.25 13.125C5.25 13.7484 4.74844 14.25 4.125 14.25ZM9 12H9.375C9.7875 12 10.125 12.3375 10.125 12.75V15.75C10.125 16.1625 9.7875 16.5 9.375 16.5H9V12ZM10.5 0V6C10.5 6.82969 11.1703 7.5 12 7.5H18V21C18 22.6547 16.6547 24 15 24H3C1.34297 24 0 22.6547 0 21V3C0 1.34297 1.34297 0 3 0H10.5ZM3 10.5C2.58562 10.5 2.25 10.8375 2.25 11.25V17.25C2.25 17.6625 2.58562 18 3 18C3.41438 18 3.75 17.6625 3.75 17.25V15.75H4.125C5.57344 15.75 6.75 14.5734 6.75 13.125C6.75 11.6766 5.57344 10.5 4.125 10.5H3ZM7.5 17.25C7.5 17.6625 7.8375 18 8.25 18H9.375C10.6172 18 11.625 16.9922 11.625 15.75V12.75C11.625 11.5078 10.6172 10.5 9.375 10.5H8.25C7.8375 10.5 7.5 10.8375 7.5 11.25V17.25ZM13.5 10.5C13.0875 10.5 12.75 10.8375 12.75 11.25V17.25C12.75 17.6625 13.0875 18 13.5 18C13.9125 18 14.25 17.6625 14.25 17.25V15H15.75C16.1625 15 16.5 14.6625 16.5 14.25C16.5 13.8375 16.1625 13.5 15.75 13.5H14.25V12H15.75C16.1625 12 16.5 11.6625 16.5 11.25C16.5 10.8375 16.1625 10.5 15.75 10.5H13.5ZM12 0L18 6H12V0Z" fill="white"/>
</g>
<defs>
<clipPath id="clip0_1541_329">
<rect width="18" height="24" fill="white"/>
</clipPath>
</defs>
</svg>
