<svg width="16" height="16" viewBox="0 0 16 16" fill="none" xmlns="http://www.w3.org/2000/svg">
<path d="M15.2778 7.63889C15.2778 3.42222 11.8556 0 7.63889 0C3.42222 0 0 3.42222 0 7.63889C0 10.9071 2.05335 13.6919 4.93592 14.7848C5.52743 15.0091 6.11111 14.5331 6.11111 13.9005V10.6944C6.11111 10.2726 5.76911 9.93056 5.34722 9.93056C4.92534 9.93056 4.58333 9.58855 4.58333 9.16667V8.40278C4.58333 7.98089 4.92534 7.63889 5.34722 7.63889C5.76911 7.63889 6.11111 7.29689 6.11111 6.875V5.72917C6.11111 4.25486 7.31042 3.05556 8.78472 3.05556H9.69444C10.2467 3.05556 10.6944 3.50327 10.6944 4.05556V4.34722C10.6944 4.89951 10.2467 5.34722 9.69445 5.34722H9.16667C8.74653 5.34722 8.40278 5.69097 8.40278 6.11111V6.63889C8.40278 7.19117 8.85049 7.63889 9.40278 7.63889H9.69445C10.2467 7.63889 10.6944 8.08661 10.6944 8.63889V8.93056C10.6944 9.48284 10.2467 9.93056 9.69445 9.93056H9.40278C8.85049 9.93056 8.40278 10.3783 8.40278 10.9306V14.1357C8.40278 14.7269 8.91603 15.1945 9.48979 15.0518C12.8125 14.2256 15.2778 11.2225 15.2778 7.63889Z" fill="#F6F6F6"/>
</svg>
