<svg width="48" height="48" viewBox="0 0 48 48" fill="none" xmlns="http://www.w3.org/2000/svg">
<g id="&#209;&#133;&#209;&#150;&#208;&#188; 1" clip-path="url(#clip0_742_116)">
<path id="Vector" d="M31.5498 9.38229L19.7443 21.1878C19.3538 21.5783 19.3538 22.2115 19.7443 22.602L22.4927 25.3504C22.8833 25.7409 23.5164 25.7409 23.9069 25.3504L35.7124 13.5449C36.103 13.1544 36.103 12.5212 35.7124 12.1307L32.9641 9.38229C32.5735 8.99177 31.9404 8.99177 31.5498 9.38229Z" fill="#B11F20"/>
<path id="Vector_2" fill-rule="evenodd" clip-rule="evenodd" d="M48 24C48 37.2548 37.2548 48 24 48C10.7452 48 0 37.2548 0 24C0 10.7452 10.7452 0 24 0C37.2548 0 48 10.7452 48 24ZM24.4816 24.7755C25.1387 26.0599 25.5093 27.515 25.5093 29.0567C25.5093 34.2555 21.2949 38.4699 16.0961 38.4699C10.8973 38.4699 6.68292 34.2555 6.68292 29.0567C6.68292 23.8579 10.8973 19.6435 16.0961 19.6435C17.6069 19.6435 19.0346 19.9995 20.2999 20.6321L20.6242 20.3078L24.7868 24.4704L24.4816 24.7755ZM26.8558 25.2409C27.279 26.4341 27.5093 27.7185 27.5093 29.0567C27.5093 35.36 22.3994 40.4699 16.0961 40.4699C9.79278 40.4699 4.68292 35.36 4.68292 29.0567C4.68292 22.7534 9.79278 17.6435 16.0961 17.6435C17.3979 17.6435 18.6488 17.8615 19.8144 18.2629C19.84 18.2298 19.868 18.198 19.8983 18.1677L29.3254 8.74059C29.7159 8.35006 30.3491 8.35006 30.7396 8.74059L36.3431 14.3441C36.7336 14.7346 36.7336 15.3677 36.3431 15.7583L26.916 25.1853C26.8965 25.2048 26.8764 25.2233 26.8558 25.2409ZM23 28.5C23.5523 28.5 24.0057 28.9491 23.9447 29.498C23.8586 30.2715 23.6727 31.0303 23.391 31.7528C22.989 32.7841 22.3997 33.7211 21.6569 34.5104C20.914 35.2997 20.0321 35.9258 19.0615 36.353C18.0909 36.7801 17.0506 37 16 37C14.9494 37 13.9091 36.7801 12.9385 36.353C11.9679 35.9258 11.086 35.2997 10.3431 34.5104C9.60028 33.7211 9.011 32.7841 8.60896 31.7528C8.3273 31.0303 8.1414 30.2715 8.05533 29.498C7.99425 28.9491 8.44771 28.5 9 28.5H16H23ZM38.6021 29.4528C38.1052 30.8281 37.5187 32.4833 37.1674 33.5854C36.4676 35.7805 38.1004 37 39.5 37C40.8996 37 42.5324 36.0244 41.8326 33.5854C41.4882 32.385 40.9178 30.771 40.4273 29.4414C40.1098 28.5808 38.9139 28.5901 38.6021 29.4528Z" fill="#B11F20"/>
</g>
<defs>
<clipPath id="clip0_742_116">
<rect width="48" height="48" fill="white"/>
</clipPath>
</defs>
</svg>
