<svg width="48" height="48" viewBox="0 0 48 48" fill="none" xmlns="http://www.w3.org/2000/svg">
<g id="&#209;&#133;&#208;&#178;&#208;&#184;&#208;&#187;&#209;&#150; 1" clip-path="url(#clip0_742_121)">
<path id="Vector" fill-rule="evenodd" clip-rule="evenodd" d="M48 24C48 37.2548 37.2548 48 24 48C10.7452 48 0 37.2548 0 24C0 10.7452 10.7452 0 24 0C37.2548 0 48 10.7452 48 24ZM23.8182 24C21.0025 24 20.7285 29.5318 20.2569 39.0545C20.196 40.2849 20.1318 41.582 20.0583 42.9424C20.0274 43.516 20.4836 44 21.058 44H26.9465C27.5193 44 27.975 43.5197 27.9455 42.9477L27.9362 42.7692C27.4026 32.4386 26.9667 24 23.8182 24ZM24 22C25.6569 22 27 20.6569 27 19C27 17.3431 25.6569 16 24 16C22.3431 16 21 17.3431 21 19C21 20.6569 22.3431 22 24 22ZM28.0763 14.5511C28.439 14.1346 29.0707 14.0909 29.4872 14.4536C30.5974 15.4204 31.1568 17.0728 31.2763 18.6237C31.397 20.1897 31.0941 21.9501 30.1378 23.2095C29.8038 23.6494 29.1765 23.7352 28.7366 23.4012C28.2968 23.0672 28.2109 22.4399 28.5449 22.0001C29.1061 21.261 29.3801 20.0477 29.2822 18.7773C29.1832 17.4917 28.7284 16.4449 28.1738 15.9619C27.7573 15.5992 27.7137 14.9676 28.0763 14.5511ZM32.5479 10.3502C32.1415 9.97622 31.5089 10.0025 31.1349 10.409C30.761 10.8154 30.7873 11.448 31.1937 11.8219C32.5521 13.0718 33.5022 15.55 33.7161 18.3408C33.9287 21.1159 33.3887 23.9001 32.1069 25.6864C31.785 26.1351 31.8877 26.7599 32.3364 27.0819C32.7852 27.4039 33.4099 27.3011 33.7319 26.8524C35.3847 24.549 35.9438 21.2353 35.7102 18.188C35.4779 15.1564 34.4364 12.0878 32.5479 10.3502ZM35.2357 7.38103C35.6134 6.97818 36.2463 6.95787 36.6491 7.33567C39.077 9.6126 40.4534 13.6755 40.7649 17.7481C41.0777 21.8367 40.3423 26.2404 38.208 29.2742C37.8902 29.7259 37.2665 29.8345 36.8147 29.5168C36.363 29.199 36.2545 28.5752 36.5722 28.1235C38.3438 25.6052 39.0633 21.7246 38.7708 17.9007C38.477 14.0607 37.188 10.5829 35.281 8.79451C34.8782 8.41672 34.8579 7.78388 35.2357 7.38103ZM18.3845 14.4536C18.801 14.0909 19.4327 14.1346 19.7954 14.5511C20.1581 14.9676 20.1144 15.5992 19.6979 15.9619C19.1433 16.4449 18.6886 17.4917 18.5895 18.7773C18.4916 20.0477 18.7656 21.261 19.3268 22.0001C19.6608 22.4399 19.575 23.0672 19.1351 23.4012C18.6952 23.7352 18.0679 23.6494 17.7339 23.2095C16.7777 21.9501 16.4747 20.1897 16.5954 18.6237C16.7149 17.0728 17.2743 15.4204 18.3845 14.4536ZM16.7368 10.409C16.3629 10.0025 15.7302 9.97622 15.3238 10.3502C13.4354 12.0878 12.3938 15.1564 12.1615 18.188C11.928 21.2353 12.487 24.549 14.1398 26.8524C14.4618 27.3011 15.0866 27.4039 15.5353 27.0819C15.984 26.7599 16.0868 26.1351 15.7648 25.6864C14.483 23.9001 13.943 21.1159 14.1557 18.3408C14.3695 15.55 15.3196 13.0718 16.678 11.8219C17.0844 11.448 17.1108 10.8154 16.7368 10.409ZM11.2226 7.33567C11.6254 6.95787 12.2583 6.97818 12.6361 7.38103C13.0139 7.78388 12.9936 8.41672 12.5907 8.79451C10.6838 10.5829 9.39469 14.0607 9.10095 17.9007C8.80843 21.7246 9.52789 25.6052 11.2995 28.1235C11.6173 28.5752 11.5087 29.199 11.057 29.5168C10.6053 29.8345 9.98148 29.7259 9.66371 29.2742C7.52945 26.2404 6.79402 21.8367 7.10678 17.7481C7.41832 13.6755 8.79469 9.6126 11.2226 7.33567Z" fill="#B11F20"/>
</g>
<defs>
<clipPath id="clip0_742_121">
<rect width="48" height="48" fill="white"/>
</clipPath>
</defs>
</svg>
