<svg width="48" height="48" viewBox="0 0 48 48" fill="none" xmlns="http://www.w3.org/2000/svg">
<g id="&#208;&#190;&#208;&#177;&#208;&#190;&#208;&#187; 1" clip-path="url(#clip0_742_125)">
<path id="Vector" d="M13.6943 10.7207L10.7369 13.2489C10.3336 13.5938 10.2861 14.2003 10.6309 14.6036C10.9758 15.0069 11.5823 15.0544 11.9856 14.7096L14.943 12.1813C15.3463 11.8365 15.3938 11.23 15.0489 10.8267C14.7041 10.4233 14.0976 10.3759 13.6943 10.7207Z" fill="#B11F20"/>
<path id="Vector_2" fill-rule="evenodd" clip-rule="evenodd" d="M24 48C37.2548 48 48 37.2548 48 24C48 10.7452 37.2548 0 24 0C10.7452 0 0 10.7452 0 24C0 37.2548 10.7452 48 24 48ZM8.95682 12.8998C8.53615 13.2577 8.48522 13.8888 8.84307 14.3095L13.4902 19.7725C13.8481 20.1932 14.4792 20.2441 14.8999 19.8863L19.6689 15.8295C20.0896 15.4717 20.1405 14.8406 19.7827 14.4199L15.1355 8.95681C14.7776 8.53613 14.1465 8.4852 13.7259 8.84305L8.95682 12.8998ZM16.9437 20.0867C16.964 20.0661 16.9854 20.0463 17.0078 20.0272L20.9798 16.648C21.4004 16.2901 22.0315 16.341 22.3894 16.7616L37.6063 34.6477C37.9641 35.0684 37.9132 35.6995 37.4926 36.0573L33.5206 39.4366C33.2954 39.6282 33.01 39.7026 32.7384 39.6659C32.6665 39.6882 32.5901 39.7031 32.5095 39.7092L30.5313 39.8587C29.8362 39.9112 29.3003 39.2542 29.492 38.5843L29.9797 36.8802C29.9632 36.8821 29.9464 36.8838 29.9294 36.885L27.5336 37.0593C26.8334 37.1102 26.2984 36.4425 26.5012 35.7708L27.0841 33.8403C27.0259 33.8552 26.9648 33.8653 26.9012 33.87L24.5507 34.0418C23.8512 34.0929 23.3161 33.4266 23.5174 32.7551L24.1055 30.7941C24.1211 30.7423 24.1402 30.6929 24.1625 30.6463L21.535 30.8524C20.8445 30.9065 20.3077 30.259 20.4893 29.591L21.1896 27.0157L19.5527 27.1405C18.8587 27.1934 18.3226 26.5387 18.5119 25.8693L18.9535 24.307L16.5791 24.4739C15.8741 24.5235 15.3398 23.8458 15.5531 23.1725L16.3283 20.7247C16.4293 20.4059 16.6656 20.1854 16.9437 20.0867ZM9.1404 36.6013C8.71976 36.9592 8.66887 37.5903 9.02674 38.0109L10.2212 39.4149C10.579 39.8355 11.2101 39.8864 11.6308 39.5285L19.9472 32.4533C20.3678 32.0954 20.4187 31.4643 20.0608 31.0436L18.8664 29.6397C18.5085 29.219 17.8774 29.1682 17.4568 29.526L9.1404 36.6013ZM28.2244 22.4736C27.8665 22.0529 27.9174 21.4218 28.338 21.064L31.4076 18.4525C31.8282 18.0946 32.4594 18.1455 32.8172 18.5662L34.0116 19.9701C34.3695 20.3907 34.3186 21.0218 33.898 21.3797L30.8284 23.9912C30.4078 24.3491 29.7767 24.2982 29.4188 23.8775L28.2244 22.4736ZM39.0318 22.256L30.326 12.5841C29.6544 11.838 30.3736 10.7039 31.3253 11.0232C36.9502 12.9101 39.9179 14.8756 43.3027 18.385C43.6899 18.7864 43.6612 19.4284 43.2471 19.8019L40.4448 22.3295C40.0344 22.6997 39.4015 22.6668 39.0318 22.256Z" fill="#B11F20"/>
</g>
<defs>
<clipPath id="clip0_742_125">
<rect width="48" height="48" fill="white"/>
</clipPath>
</defs>
</svg>
