<svg width="48" height="48" viewBox="0 0 48 48" fill="none" xmlns="http://www.w3.org/2000/svg">
<g clip-path="url(#clip0_741_74)">
<path d="M24 48C37.2548 48 48 37.2548 48 24C48 10.7452 37.2548 0 24 0C10.7452 0 0 10.7452 0 24C0 37.2548 10.7452 48 24 48Z" fill="#F6F6F6"/>
<path d="M23.2379 44.3562C12.433 34.1983 8.46931 27.4248 8.01827 13.611C8.00563 13.2237 8.2212 12.8603 8.56771 12.6869L23.4814 5.22299C23.762 5.08257 24.0922 5.08197 24.3733 5.22136L39.4034 12.6751C39.7647 12.8543 39.9833 13.2383 39.9542 13.6406C38.9703 27.279 35.2495 34.1447 24.6097 44.3495C24.2291 44.7146 23.6221 44.7174 23.2379 44.3562Z" fill="#B11F20"/>
</g>
<defs>
<clipPath id="clip0_741_74">
<rect width="48" height="48" fill="white"/>
</clipPath>
</defs>
</svg>
