<svg width="48" height="48" viewBox="0 0 48 48" fill="none" xmlns="http://www.w3.org/2000/svg">
<g id="&#209;&#130;&#208;&#181;&#208;&#188;&#208;&#191; 1" clip-path="url(#clip0_742_130)">
<path id="Vector" fill-rule="evenodd" clip-rule="evenodd" d="M24 48C37.2548 48 48 37.2548 48 24C48 10.7452 37.2548 0 24 0C10.7452 0 0 10.7452 0 24C0 37.2548 10.7452 48 24 48ZM22 44C26.4183 44 30 40.4183 30 36C30 32.6426 27.9318 29.7683 25 28.5815V17H29C29.5523 17 30 16.5523 30 16C30 15.4477 29.5523 15 29 15H25V14H33C33.5523 14 34 13.5523 34 13C34 12.4477 33.5523 12 33 12H25V10H29C29.5523 10 30 9.55229 30 9C30 8.44771 29.5523 8 29 8H25C25 6.34315 23.6569 5 22 5C20.3431 5 19 6.34315 19 8V28.5815C16.0682 29.7683 14 32.6426 14 36C14 40.4183 17.5817 44 22 44Z" fill="#B11F20"/>
<path id="Vector_2" d="M22 41C24.7614 41 27 38.7614 27 36C27 33.2386 24.7614 31 22 31C19.2386 31 17 33.2386 17 36C17 38.7614 19.2386 41 22 41Z" fill="#B11F20"/>
<path id="Vector_3" d="M21 13.3279C21 13.1468 21.1468 13 21.3279 13H22.6721C22.8532 13 23 13.1468 23 13.3279V32C23 32.5523 22.5523 33 22 33C21.4477 33 21 32.5523 21 32V13.3279Z" fill="#B11F20"/>
</g>
<defs>
<clipPath id="clip0_742_130">
<rect width="48" height="48" fill="white"/>
</clipPath>
</defs>
</svg>
