<svg width="48" height="48" viewBox="0 0 48 48" fill="none" xmlns="http://www.w3.org/2000/svg">
<g id="1 523" clip-path="url(#clip0_742_110)">
<path id="Vector" d="M24 48C37.2548 48 48 37.2548 48 24C48 10.7452 37.2548 0 24 0C10.7452 0 0 10.7452 0 24C0 37.2548 10.7452 48 24 48Z" fill="#B11F20"/>
<path id="Vector_2" d="M17.9477 43.7799C12.114 42.5383 7.47468 31.8272 14.6558 18.4872C15.1805 17.5125 16.3818 18.0476 16.0918 19.1159C14.5345 24.8528 13.7873 29.0364 17.4964 32.841C17.7886 33.1408 19.1511 32.0918 18.5026 27.8961C17.8541 23.7003 18.1284 17.8117 20.6554 13.5107C23.1825 9.20967 30.3452 2.72165 29.9822 4.22012C28.4592 10.5082 27.8762 15.9082 31.637 21.3028C35.3978 26.6973 37.8047 31.1927 36.7516 35.9878C35.6986 40.783 28.7788 44.0796 29.2301 43.7799C33.3105 38.6835 33.873 35.5396 31.637 29.3945C31.637 28.7952 27.7257 40.1836 29.2301 34.6392C30.7344 29.0948 28.6283 26.8471 27.2744 23.9192C25.9206 20.9912 24.3915 17.989 25.1684 13.9602C20.434 19.0102 25.3877 32.224 26.071 35.9878C26.7542 39.7517 24.4284 45.1593 17.9477 43.7799Z" fill="white"/>
<path id="Vector_3" d="M8 39L40 8" stroke="#B11F20" stroke-width="4"/>
</g>
<defs>
<clipPath id="clip0_742_110">
<rect width="48" height="48" fill="white"/>
</clipPath>
</defs>
</svg>
