<svg width="48" height="48" viewBox="0 0 48 48" fill="none" xmlns="http://www.w3.org/2000/svg">
<g id="&#209;&#137;&#208;&#184;&#209;&#130; 1" clip-path="url(#clip0_742_128)">
<path id="Vector" fill-rule="evenodd" clip-rule="evenodd" d="M24 48C37.2548 48 48 37.2548 48 24C48 10.7452 37.2548 0 24 0C10.7452 0 0 10.7452 0 24C0 37.2548 10.7452 48 24 48ZM8.01827 13.611C8.46931 27.4248 12.433 34.1983 23.2379 44.3562C23.6221 44.7174 24.2291 44.7146 24.6097 44.3495C35.2495 34.1447 38.9703 27.279 39.9542 13.6406C39.9833 13.2383 39.7647 12.8543 39.4034 12.6751L24.3733 5.22134C24.0922 5.08195 23.762 5.08255 23.4814 5.22297L8.56771 12.6869C8.2212 12.8603 8.00563 13.2237 8.01827 13.611Z" fill="#B11F20"/>
</g>
<defs>
<clipPath id="clip0_742_128">
<rect width="48" height="48" fill="white"/>
</clipPath>
</defs>
</svg>
