<svg width="48" height="48" viewBox="0 0 48 48" fill="none" xmlns="http://www.w3.org/2000/svg">
<g clip-path="url(#clip0_741_77)">
<path d="M24 48C37.2548 48 48 37.2548 48 24C48 10.7452 37.2548 0 24 0C10.7452 0 0 10.7452 0 24C0 37.2548 10.7452 48 24 48Z" fill="#F6F6F6"/>
<path d="M22 44C26.4183 44 30 40.4183 30 36C30 31.5817 26.4183 28 22 28C17.5817 28 14 31.5817 14 36C14 40.4183 17.5817 44 22 44Z" fill="#B11F20"/>
<path d="M25 8C25 6.34315 23.6569 5 22 5C20.3431 5 19 6.34315 19 8V36C19 37.6569 20.3431 39 22 39C23.6569 39 25 37.6569 25 36V8Z" fill="#B11F20"/>
<path d="M29 10H25C24.4477 10 24 9.55228 24 9C24 8.44772 24.4477 8 25 8H29C29.5523 8 30 8.44772 30 9C30 9.55228 29.5523 10 29 10Z" fill="#B11F20"/>
<path d="M33 14H25C24.4477 14 24 13.5523 24 13C24 12.4477 24.4477 12 25 12H33C33.5523 12 34 12.4477 34 13C34 13.5523 33.5523 14 33 14Z" fill="#B11F20"/>
<path d="M29 17H25C24.4477 17 24 16.5523 24 16C24 15.4477 24.4477 15 25 15H29C29.5523 15 30 15.4477 30 16C30 16.5523 29.5523 17 29 17Z" fill="#B11F20"/>
<path d="M22 41C24.7614 41 27 38.7614 27 36C27 33.2386 24.7614 31 22 31C19.2386 31 17 33.2386 17 36C17 38.7614 19.2386 41 22 41Z" fill="#F6F6F6"/>
<path d="M21 13.3279C21 13.1468 21.1468 13 21.3279 13H22.6721C22.8532 13 23 13.1468 23 13.3279V32C23 32.5523 22.5523 33 22 33C21.4477 33 21 32.5523 21 32V13.3279Z" fill="#F6F6F6"/>
</g>
<defs>
<clipPath id="clip0_741_77">
<rect width="48" height="48" fill="white"/>
</clipPath>
</defs>
</svg>
