<svg width="48" height="48" viewBox="0 0 48 48" fill="none" xmlns="http://www.w3.org/2000/svg">
<g id="&#208;&#177;&#209;&#131;&#208;&#186;&#209;&#129;&#209;&#131;&#208;&#178;&#208;&#176;&#208;&#187;&#209;&#140;&#208;&#189;&#209;&#150; 1" clip-path="url(#clip0_742_134)">
<path id="Vector" fill-rule="evenodd" clip-rule="evenodd" d="M24 48C37.2548 48 48 37.2548 48 24C48 10.7452 37.2548 0 24 0C10.7452 0 0 10.7452 0 24C0 37.2548 10.7452 48 24 48ZM37.7461 9H16.3342C15.1316 9 14.5497 9.88225 13.785 11.3527C13.6166 11.6764 13.4149 12.0429 13.181 12.4679C12.3525 13.9735 11.1201 16.213 9.53633 19.8811C5.85418 28.4096 9.1273 39.2179 15.7741 38.9967C25.0602 38.6875 32.8599 38.8866 35.342 38.9673C35.8234 38.9829 36.246 38.6556 36.3522 38.1858C36.8191 36.1221 37.2014 34.3245 37.5838 32.5269C37.9699 30.7113 38.3561 28.8958 38.8293 26.806C38.9293 26.3645 38.7034 25.9725 38.2521 25.9374C35.905 25.7549 28.7615 25.8755 23.0661 25.9716C20.3765 26.017 18.0098 26.0569 16.6238 26.0569C11.8087 26.0569 14.6411 21.0575 16.0573 21.0575H35.3763C35.8405 21.0575 36.2426 20.7381 36.3488 20.2862L38.7114 10.2287C38.8588 9.60107 38.3908 9 37.7461 9Z" fill="#B11F20"/>
<path id="Vector_2" d="M9.45867 29.8021L11.5591 27.0015C12.0051 26.4068 12.9211 26.4894 13.2535 27.1543L13.4802 27.6075C13.612 27.8711 13.6208 28.1794 13.5042 28.4501L11.9431 32.0769C11.6207 32.8259 10.5854 32.8948 10.1666 32.1951L9.40067 30.9157C9.19202 30.5672 9.21494 30.127 9.45867 29.8021Z" fill="#B11F20"/>
<path id="Vector_3" d="M9.70407 23.5667L11.2584 22.983C11.8749 22.7514 12.5024 23.2963 12.3595 23.9392C12.3217 24.109 12.2315 24.2627 12.1016 24.3784L10.7209 25.6086C10.0763 26.183 9.05566 25.7254 9.05566 24.862V24.5029C9.05566 24.0862 9.31401 23.7132 9.70407 23.5667Z" fill="#B11F20"/>
<path id="Vector_4" d="M33.0988 12.4862C33.2238 12.053 33.6233 11.7571 34.0741 11.7637L35.3866 11.7828C36.043 11.7924 36.5123 12.4212 36.3347 13.0532L34.8637 18.2898C34.741 18.7265 34.3399 19.0259 33.8864 19.0193L32.5334 18.9995C31.874 18.9899 31.4044 18.3558 31.5873 17.7223L33.0988 12.4862Z" fill="#B11F20"/>
<path id="Vector_5" d="M33.0988 30.0433C33.2238 29.6101 33.6233 29.3142 34.0741 29.3207L35.3866 29.3399C36.043 29.3495 36.5123 29.9782 36.3347 30.6102L34.8637 35.8469C34.741 36.2835 34.3399 36.583 33.8864 36.5763L32.5334 36.5566C31.874 36.547 31.4044 35.9129 31.5873 35.2793L33.0988 30.0433Z" fill="#B11F20"/>
<path id="Vector_6" d="M26.8563 12.4862C26.9814 12.053 27.3809 11.7571 27.8317 11.7637L29.1442 11.7828C29.8006 11.7924 30.2699 12.4212 30.0923 13.0532L28.6213 18.2898C28.4986 18.7265 28.0974 19.0259 27.6439 19.0193L26.291 18.9995C25.6316 18.9899 25.1619 18.3558 25.3448 17.7223L26.8563 12.4862Z" fill="#B11F20"/>
<path id="Vector_7" d="M26.8563 30.0433C26.9814 29.6101 27.3809 29.3142 27.8317 29.3207L29.1442 29.3399C29.8006 29.3495 30.2699 29.9782 30.0923 30.6102L28.6213 35.8469C28.4986 36.2835 28.0974 36.583 27.6439 36.5763L26.291 36.5566C25.6316 36.547 25.1619 35.9129 25.3448 35.2793L26.8563 30.0433Z" fill="#B11F20"/>
<path id="Vector_8" d="M21.0038 12.4862C21.1288 12.053 21.5283 11.7571 21.9791 11.7637L23.2916 11.7828C23.948 11.7924 24.4173 12.4212 24.2398 13.0532L22.7687 18.2898C22.646 18.7265 22.2449 19.0259 21.7914 19.0193L20.4384 18.9995C19.7791 18.9899 19.3094 18.3558 19.4923 17.7223L21.0038 12.4862Z" fill="#B11F20"/>
<path id="Vector_9" d="M21.0038 30.0433C21.1288 29.6101 21.5283 29.3142 21.9791 29.3207L23.2916 29.3399C23.948 29.3495 24.4173 29.9782 24.2398 30.6102L22.7687 35.8469C22.646 36.2835 22.2449 36.583 21.7914 36.5763L20.4384 36.5566C19.7791 36.547 19.3094 35.9129 19.4923 35.2793L21.0038 30.0433Z" fill="#B11F20"/>
<path id="Vector_10" d="M15.1515 12.4862C15.2766 12.053 15.6761 11.7571 16.1269 11.7637L17.4394 11.7828C18.0958 11.7924 18.5651 12.4212 18.3875 13.0532L16.9164 18.2898C16.7938 18.7265 16.3926 19.0259 15.9391 19.0193L14.5862 18.9995C13.9268 18.9899 13.4571 18.3558 13.64 17.7223L15.1515 12.4862Z" fill="#B11F20"/>
<path id="Vector_11" d="M15.1515 30.0433C15.2766 29.6101 15.6761 29.3142 16.1269 29.3207L17.4394 29.3399C18.0958 29.3495 18.5651 29.9782 18.3875 30.6102L16.9164 35.8469C16.7938 36.2835 16.3926 36.583 15.9391 36.5763L14.5862 36.5566C13.9268 36.547 13.4571 35.9129 13.64 35.2793L15.1515 30.0433Z" fill="#B11F20"/>
</g>
<defs>
<clipPath id="clip0_742_134">
<rect width="48" height="48" fill="white"/>
</clipPath>
</defs>
</svg>
