<svg width="48" height="48" viewBox="0 0 48 48" fill="none" xmlns="http://www.w3.org/2000/svg">
<g id="&#208;&#188;&#208;&#176;&#209;&#129;&#208;&#187;&#208;&#190; 1" clip-path="url(#clip0_742_119)">
<path id="Vector" fill-rule="evenodd" clip-rule="evenodd" d="M24 48C37.2548 48 48 37.2548 48 24C48 10.7452 37.2548 0 24 0C10.7452 0 0 10.7452 0 24C0 37.2548 10.7452 48 24 48ZM15 8C14.4477 8 14 8.44771 14 9V15C14 15.5523 14.4477 16 15 16H33C33.5523 16 34 15.5523 34 15V9C34 8.44771 33.5523 8 33 8H15ZM14 34C14 33.4477 14.4477 33 15 33H33C33.5523 33 34 33.4477 34 34V40C34 40.5523 33.5523 41 33 41H15C14.4477 41 14 40.5523 14 40V34ZM15 18C14.4477 18 14 18.4477 14 19V30C14 30.5523 14.4477 31 15 31H33C33.5523 31 34 30.5523 34 30V19C34 18.4477 33.5523 18 33 18H15Z" fill="#B11F20"/>
</g>
<defs>
<clipPath id="clip0_742_119">
<rect width="48" height="48" fill="white"/>
</clipPath>
</defs>
</svg>
