<svg width="48" height="48" viewBox="0 0 48 48" fill="none" xmlns="http://www.w3.org/2000/svg">
<g clip-path="url(#clip0_741_57)">
<path d="M24 48C37.2548 48 48 37.2548 48 24C48 10.7452 37.2548 0 24 0C10.7452 0 0 10.7452 0 24C0 37.2548 10.7452 48 24 48Z" fill="#F6F6F6"/>
<path d="M13.7259 8.84307L8.95682 12.8999C8.53615 13.2577 8.48522 13.8888 8.84307 14.3095L13.4902 19.7726C13.8481 20.1932 14.4792 20.2442 14.8999 19.8863L19.6689 15.8295C20.0896 15.4717 20.1405 14.8406 19.7827 14.4199L15.1355 8.95683C14.7776 8.53616 14.1465 8.48523 13.7259 8.84307Z" fill="#B11F20"/>
<path d="M13.6943 10.7207L10.7369 13.2489C10.3336 13.5938 10.2861 14.2003 10.6309 14.6036C10.9758 15.0069 11.5823 15.0544 11.9856 14.7096L14.943 12.1813C15.3463 11.8365 15.3938 11.23 15.049 10.8267C14.7041 10.4233 14.0976 10.3759 13.6943 10.7207Z" fill="#F6F6F6"/>
<path d="M20.6928 17.3846L17.1256 20.4195C16.7049 20.7774 16.654 21.4085 17.0119 21.8292L31.9186 39.3507C32.2765 39.7714 32.9076 39.8223 33.3283 39.4644L36.8955 36.4295C37.3162 36.0716 37.3671 35.4405 37.0092 35.0198L22.1025 17.4983C21.7446 17.0776 21.1135 17.0267 20.6928 17.3846Z" fill="#B11F20"/>
<path d="M15.7453 23.3542L16.185 21.973C16.4098 21.2669 17.2977 21.0421 17.8315 21.556L19.1366 22.8126C19.7603 23.4132 19.3779 24.4688 18.5142 24.5304L16.7693 24.655C16.0641 24.7054 15.5307 24.0279 15.7453 23.3542Z" fill="#B11F20"/>
<path d="M18.4219 26.4749L18.7687 25.0676C18.966 24.2672 19.9927 24.0359 20.5142 24.6743L21.5657 25.9617C22.0743 26.5843 21.6776 27.522 20.8767 27.5907L19.4782 27.7106C18.7959 27.769 18.258 27.1398 18.4219 26.4749Z" fill="#B11F20"/>
<path d="M21.2492 29.528L21.5629 28.3683C21.7704 27.6012 22.7465 27.3709 23.275 27.9644L24.218 29.0233C24.7673 29.6401 24.3744 30.6192 23.5511 30.6852L22.2944 30.7859C21.6047 30.8412 21.0686 30.196 21.2492 29.528Z" fill="#B11F20"/>
<path d="M23.6603 32.6677L23.9739 31.5081C24.1814 30.741 25.1575 30.5107 25.686 31.1041L26.6291 32.1631C27.1783 32.7799 26.7854 33.7589 25.9622 33.8249L24.7055 33.9256C24.0157 33.9809 23.4796 33.3357 23.6603 32.6677Z" fill="#B11F20"/>
<path d="M26.0399 35.7692L26.3119 34.8602C26.5303 34.1306 27.4516 33.9031 27.9844 34.4472L28.7955 35.2754C29.3906 35.8831 29.0036 36.9091 28.1554 36.9723L27.0723 37.0531C26.3733 37.1052 25.839 36.4407 26.0399 35.7692Z" fill="#B11F20"/>
<path d="M28.7377 38.9204L29.1514 37.3794C29.3581 36.6096 30.3382 36.3792 30.8663 36.9762L32.1109 38.3836C32.6569 39.0009 32.2636 39.9766 31.4421 40.0428L29.7838 40.1764C29.0947 40.232 28.5584 39.5881 28.7377 38.9204Z" fill="#B11F20"/>
<path d="M17.4568 29.526L9.1404 36.6013C8.71975 36.9592 8.66886 37.5903 9.02673 38.0109L10.2211 39.4149C10.579 39.8355 11.2101 39.8864 11.6308 39.5285L19.9472 32.4532C20.3678 32.0954 20.4187 31.4642 20.0608 31.0436L18.8664 29.6397C18.5086 29.219 17.8774 29.1681 17.4568 29.526Z" fill="#B11F20"/>
<path d="M31.4076 18.4525L28.3381 21.0639C27.9174 21.4218 27.8665 22.0529 28.2244 22.4736L29.4188 23.8775C29.7767 24.2981 30.4078 24.349 30.8284 23.9912L33.898 21.3797C34.3186 21.0218 34.3695 20.3907 34.0117 19.97L32.8172 18.5661C32.4594 18.1455 31.8283 18.0946 31.4076 18.4525Z" fill="#B11F20"/>
<path d="M30.326 12.5841L39.0318 22.256C39.4015 22.6668 40.0344 22.6997 40.4448 22.3295L43.2471 19.8019C43.6612 19.4284 43.6899 18.7864 43.3027 18.385C39.9179 14.8756 36.9502 12.9101 31.3253 11.0232C30.3736 10.7039 29.6544 11.838 30.326 12.5841Z" fill="#B11F20"/>
</g>
<defs>
<clipPath id="clip0_741_57">
<rect width="48" height="48" fill="white"/>
</clipPath>
</defs>
</svg>
