<svg width="48" height="48" viewBox="0 0 48 48" fill="none" xmlns="http://www.w3.org/2000/svg">
<g clip-path="url(#clip0_741_22)">
<path d="M24 48C37.2548 48 48 37.2548 48 24C48 10.7452 37.2548 0 24 0C10.7452 0 0 10.7452 0 24C0 37.2548 10.7452 48 24 48Z" fill="#F6F6F6"/>
<path fill-rule="evenodd" clip-rule="evenodd" d="M24.4816 24.7755C25.1387 26.0599 25.5093 27.515 25.5093 29.0567C25.5093 34.2555 21.2949 38.4699 16.0961 38.4699C10.8973 38.4699 6.68292 34.2555 6.68292 29.0567C6.68292 23.8579 10.8973 19.6435 16.0961 19.6435C17.6069 19.6435 19.0346 19.9995 20.2999 20.6321L21.7766 19.1554C20.1038 18.1936 18.1642 17.6435 16.0961 17.6435C9.79278 17.6435 4.68292 22.7534 4.68292 29.0567C4.68292 35.36 9.79278 40.4699 16.0961 40.4699C22.3994 40.4699 27.5093 35.36 27.5093 29.0567C27.5093 26.9582 26.9429 24.9919 25.9547 23.3025L24.4816 24.7755Z" fill="#B11F20"/>
<path d="M29.3254 8.7406L19.8983 18.1677C19.5078 18.5582 19.5078 19.1914 19.8983 19.5819L25.5018 25.1854C25.8923 25.5759 26.5255 25.5759 26.916 25.1854L36.3431 15.7583C36.7336 15.3678 36.7336 14.7346 36.3431 14.3441L30.7396 8.7406C30.3491 8.35008 29.7159 8.35008 29.3254 8.7406Z" fill="#B11F20"/>
<path d="M31.5498 9.38229L19.7443 21.1878C19.3538 21.5783 19.3538 22.2115 19.7443 22.602L22.4927 25.3504C22.8832 25.7409 23.5164 25.7409 23.9069 25.3504L35.7124 13.5449C36.1029 13.1544 36.1029 12.5212 35.7124 12.1307L32.964 9.38229C32.5735 8.99177 31.9403 8.99177 31.5498 9.38229Z" fill="#F6F6F6"/>
<path d="M23.1508 28C23.6445 28 24.0497 28.4491 23.995 28.998C23.9114 29.8372 23.7223 30.6609 23.4323 31.4442C23.028 32.5361 22.4355 33.5282 21.6885 34.364C20.9414 35.1997 20.0546 35.8626 19.0786 36.3149C18.1025 36.7672 17.0564 37 16 37C14.9436 37 13.8975 36.7672 12.9214 36.3149C11.9454 35.8626 11.0586 35.1997 10.3116 34.364C9.56456 33.5282 8.972 32.5361 8.56772 31.4442C8.27772 30.6609 8.08867 29.8372 8.00497 28.9979C7.95023 28.4491 8.35555 28 8.84921 28H16H23.1508Z" fill="#B11F20"/>
<path d="M37.1674 33.5854C37.5187 32.4833 38.1052 30.8281 38.6022 29.4528C38.9139 28.5901 40.1098 28.5808 40.4273 29.4414C40.9178 30.771 41.4882 32.385 41.8326 33.5854C42.5324 36.0244 40.8996 37 39.5 37C38.1004 37 36.4676 35.7805 37.1674 33.5854Z" fill="#B11F20"/>
</g>
<defs>
<clipPath id="clip0_741_22">
<rect width="48" height="48" fill="white"/>
</clipPath>
</defs>
</svg>
