<svg width="48" height="48" viewBox="0 0 48 48" fill="none" xmlns="http://www.w3.org/2000/svg">
<g clip-path="url(#clip0_741_29)">
<path d="M24 48C37.2548 48 48 37.2548 48 24C48 10.7452 37.2548 0 24 0C10.7452 0 0 10.7452 0 24C0 37.2548 10.7452 48 24 48Z" fill="#F6F6F6"/>
<path d="M33 8H15C14.4477 8 14 8.44772 14 9V15C14 15.5523 14.4477 16 15 16H33C33.5523 16 34 15.5523 34 15V9C34 8.44772 33.5523 8 33 8Z" fill="#B11F20"/>
<path d="M33 33H15C14.4477 33 14 33.4477 14 34V40C14 40.5523 14.4477 41 15 41H33C33.5523 41 34 40.5523 34 40V34C34 33.4477 33.5523 33 33 33Z" fill="#B11F20"/>
<path d="M33 18H15C14.4477 18 14 18.4477 14 19V30C14 30.5523 14.4477 31 15 31H33C33.5523 31 34 30.5523 34 30V19C34 18.4477 33.5523 18 33 18Z" fill="#B11F20"/>
</g>
<defs>
<clipPath id="clip0_741_29">
<rect width="48" height="48" fill="white"/>
</clipPath>
</defs>
</svg>
