<svg width="48" height="48" viewBox="0 0 48 48" fill="none" xmlns="http://www.w3.org/2000/svg">
<g id="uv 1" clip-path="url(#clip0_742_123)">
<path id="Vector" fill-rule="evenodd" clip-rule="evenodd" d="M24 48C37.2548 48 48 37.2548 48 24C48 12.9727 40.5629 3.68239 30.4308 0.8713C30.4362 0.913435 30.439 0.956392 30.439 1V9.92683C30.439 9.95063 30.4382 9.97423 30.4366 9.99761C32.2948 10.871 33.9528 12.0999 35.3229 13.5969L39.4805 9.43923C39.871 9.0487 40.5042 9.0487 40.8947 9.43923C41.2853 9.82975 41.2853 10.4629 40.8947 10.8534L36.5832 15.165C38.3436 17.6687 39.3867 20.7133 39.4141 24H46C46.5523 24 47 24.4477 47 25C47 25.5523 46.5523 26 46 26H39.3041C38.9268 29.1655 37.6021 32.0401 35.6217 34.3324L39.7702 38.4809C40.1607 38.8714 40.1607 39.5045 39.7702 39.8951C39.3796 40.2856 38.7465 40.2856 38.3559 39.8951L34.2205 35.7596C31.7246 37.9969 28.5042 39.4424 24.9545 39.7008C24.984 39.7953 25 39.8958 25 40V46C25 46.5523 24.5523 47 24 47C23.4477 47 23 46.5523 23 46V40C23 39.9043 23.0135 39.8117 23.0386 39.724C19.3146 39.544 15.933 38.0589 13.3413 35.7164L9.16255 39.8951C8.77202 40.2856 8.13886 40.2856 7.74833 39.8951C7.35781 39.5045 7.35781 38.8714 7.74833 38.4809L11.9458 34.2834C9.9793 31.988 8.66761 29.1151 8.30026 25.9541C8.20548 25.9839 8.10462 26 8 26H2C1.44772 26 1 25.5523 1 25C1 24.4477 1.44772 24 2 24H8C8.06692 24 8.1323 24.0066 8.19553 24.0191C8.219 20.727 9.26157 17.6772 11.0235 15.1694L6.70754 10.8534C6.31701 10.4629 6.31701 9.82975 6.70754 9.43923C7.09806 9.0487 7.73123 9.0487 8.12175 9.43923L12.2833 13.6008C13.5645 12.2 15.0977 11.0337 16.8112 10.1735C16.7911 10.0946 16.7805 10.012 16.7805 9.92683V1.10486C7.05351 4.16911 0 13.2608 0 24C0 37.2548 10.7452 48 24 48ZM24 0C25.6714 0 27.3029 0.17086 28.878 0.496066V10.9268L28.8781 11.4999C33.8819 13.5113 37.4146 18.4094 37.4146 24.1327C37.4146 31.6492 31.3213 37.7425 23.8049 37.7425C16.2884 37.7425 10.1951 31.6492 10.1951 24.1327C10.1951 18.5594 13.5452 13.7685 18.3415 11.6639V9.50575V0.670903C20.1559 0.232364 22.0508 0 24 0ZM16.3518 20C15.3758 19.7821 15.3757 19.7824 15.3757 19.7828L15.3749 19.786L15.3734 19.7932L15.3682 19.8173C15.3639 19.8375 15.3579 19.8661 15.3505 19.9025C15.3357 19.9754 15.3154 20.0795 15.292 20.2106C15.2451 20.4724 15.1854 20.8433 15.1322 21.2873C15.0266 22.1688 14.943 23.3682 15.0491 24.5867C15.1537 25.7875 15.4512 27.118 16.1967 28.1714C16.9842 29.2842 18.2125 30 19.9283 30C21.643 30 22.8785 29.286 23.6853 28.1847C24.452 27.1381 24.7824 25.8128 24.9168 24.6112C25.0531 23.3932 24.9994 22.1937 24.9156 21.3117C24.8734 20.8675 24.8229 20.4965 24.7825 20.2344C24.7623 20.1033 24.7446 19.999 24.7316 19.9261C24.7251 19.8896 24.7198 19.861 24.716 19.8407L24.7114 19.8166L24.71 19.8093L24.7095 19.8069C24.7094 19.8066 24.7092 19.8054 23.7284 20C22.7475 20.1946 22.7474 20.1944 22.7474 20.1942L22.7478 20.1965L22.7506 20.211L22.7572 20.2466L22.7625 20.2761C22.7729 20.335 22.7881 20.4241 22.8058 20.539C22.8413 20.7691 22.8866 21.1012 22.9246 21.5008C23.0011 22.3063 23.0447 23.3568 22.9292 24.3888C22.8119 25.4372 22.5414 26.3619 22.0719 27.0028C21.6424 27.589 21.0066 28 19.9283 28C18.8512 28 18.2359 27.5908 17.8292 27.0161C17.3804 26.382 17.1329 25.4625 17.0416 24.4133C16.9518 23.3818 17.0214 22.3312 17.118 21.5252C17.1659 21.1255 17.2195 20.7932 17.2607 20.5628C17.2813 20.4478 17.2987 20.3586 17.3107 20.2996C17.3166 20.2701 17.3212 20.2482 17.3242 20.2344L17.3273 20.2198L17.3278 20.2174C17.3278 20.2176 17.3277 20.2179 16.3518 20ZM29.2813 29.6551C29.1009 29.8113 28.8011 30 28.4 30C27.9966 30 27.6955 29.8092 27.5137 29.6488C27.3321 29.4886 27.1961 29.2965 27.0948 29.1278C26.891 28.788 26.7184 28.3551 26.5701 27.91C26.2687 27.0058 25.9965 25.8317 25.7694 24.6961C25.5406 23.552 25.3506 22.4118 25.2181 21.56C25.1518 21.1334 25.0996 20.7777 25.064 20.5281C25.0461 20.4033 25.0324 20.305 25.0231 20.2376L25.0125 20.1601L25.0098 20.1397L25.0091 20.1343L25.0089 20.1328C25.0089 20.1327 25.0088 20.1322 26 20L26.9912 19.8678L26.9914 19.869L26.992 19.8733L26.9944 19.8916L27.0044 19.9646C27.0133 20.029 27.0265 20.124 27.0439 20.2453C27.0785 20.4879 27.1295 20.8354 27.1944 21.2525C27.3244 22.0882 27.5094 23.198 27.7306 24.3039C27.9392 25.347 28.1741 26.3563 28.4174 27.1235C28.6803 26.353 28.9401 25.3348 29.1738 24.2831C29.4196 23.1769 29.6294 22.067 29.7779 21.2312C29.8521 20.814 29.9108 20.4665 29.9509 20.2238C29.9709 20.1025 29.9862 20.0075 29.9965 19.9431L30.0082 19.87L30.011 19.8518L30.0117 19.8474L30.0119 19.8463L31 20C31.9881 20.1537 31.9881 20.1538 31.9881 20.1539L31.9878 20.1558L31.9869 20.1612L31.9837 20.1816L31.9714 20.2591C31.9606 20.3265 31.9447 20.4248 31.9241 20.5496C31.883 20.7991 31.8229 21.1548 31.7471 21.5813C31.5956 22.433 31.3804 23.5731 31.1262 24.7169C30.8739 25.8524 30.5758 27.0257 30.2547 27.9288C30.0966 28.3736 29.9151 28.8045 29.7053 29.1416C29.6011 29.3091 29.4629 29.498 29.2813 29.6551Z" fill="#B11F20"/>
</g>
<defs>
<clipPath id="clip0_742_123">
<rect width="48" height="48" fill="white"/>
</clipPath>
</defs>
</svg>
