<svg width="48" height="48" viewBox="0 0 48 48" fill="none" xmlns="http://www.w3.org/2000/svg">
<g clip-path="url(#clip0_741_17)">
<path d="M24 48C37.2548 48 48 37.2548 48 24C48 10.7452 37.2548 0 24 0C10.7452 0 0 10.7452 0 24C0 37.2548 10.7452 48 24 48Z" fill="#F6F6F6"/>
<path d="M8.47383 27.8845C5.91776 27.3132 3.82027 22.9242 5.75683 17.1343C6.10998 16.0784 7.12678 16.4914 6.98275 17.5954C6.75616 19.3322 6.98673 20.7829 8.24819 22.1415C8.39428 22.2989 9.07556 21.7482 8.7513 19.5454C8.42705 17.3427 8.56418 14.2511 9.82772 11.9931C11.0913 9.73508 14.6726 6.32887 14.4911 7.11556C13.7296 10.4168 13.4381 13.2518 15.3185 16.084C17.1989 18.9161 18.4023 21.2762 17.8758 23.7936C17.3493 26.3111 13.8894 28.0418 14.115 27.8845C16.1552 25.2088 16.4365 23.5583 15.3185 20.3321C15.3185 20.0175 13.3629 25.9964 14.115 23.0856C14.8672 20.1748 13.8142 18.9947 13.1372 17.4576C12.4603 15.9204 11.6958 14.3442 12.0842 12.2291C9.71699 14.8804 12.1939 21.8176 12.5355 23.7936C12.8771 25.7696 11.7142 28.6086 8.47383 27.8845Z" fill="#B11F20"/>
<path d="M40.2589 27.8845C43.0633 27.3025 45.355 22.7583 43.0631 16.8071C42.6664 15.7772 41.6405 16.2282 41.8219 17.3168C42.132 19.1782 41.9324 20.7109 40.502 22.1415C40.3446 22.2989 39.6109 21.7482 39.9601 19.5454C40.3093 17.3427 40.1617 14.2511 38.8009 11.9931C37.4402 9.73508 33.5834 6.32887 33.7788 7.11556C34.5989 10.4168 34.9128 13.2518 32.8878 16.084C30.8627 18.9161 29.5667 21.2762 30.1337 23.7936C30.7007 26.3111 34.4268 28.0418 34.1838 27.8845C31.9867 25.2088 31.6838 23.5583 32.8878 20.3321C32.8878 20.0175 34.9938 25.9964 34.1838 23.0856C33.3738 20.1748 34.5078 18.9947 35.2368 17.4576C35.9659 15.9204 36.7892 14.3442 36.3709 12.2291C38.9202 14.8804 36.2528 21.8176 35.8849 23.7936C35.517 25.7696 36.7693 28.6086 40.2589 27.8845Z" fill="#B11F20"/>
<path d="M20.7411 44.8845C17.9367 44.3025 15.645 39.7583 17.9369 33.8071C18.3336 32.7772 19.3595 33.2282 19.1781 34.3168C18.868 36.1782 19.0676 37.7109 20.498 39.1415C20.6554 39.2989 21.3891 38.7482 21.0399 36.5454C20.6907 34.3427 20.8383 31.2511 22.1991 28.9931C23.5598 26.7351 27.4166 23.3289 27.2212 24.1156C26.4011 27.4168 26.0872 30.2518 28.1122 33.084C30.1373 35.9161 31.4333 38.2762 30.8663 40.7936C30.2993 43.3111 26.5732 45.0418 26.8162 44.8845C29.0133 42.2088 29.3162 40.5583 28.1122 37.3321C28.1122 37.0175 26.0062 42.9964 26.8162 40.0856C27.6262 37.1748 26.4922 35.9947 25.7632 34.4576C25.0341 32.9204 24.2108 31.3442 24.6291 29.2291C22.0798 31.8804 24.7472 38.8176 25.1151 40.7936C25.483 42.7696 24.2307 45.6086 20.7411 44.8845Z" fill="#B11F20"/>
</g>
<defs>
<clipPath id="clip0_741_17">
<rect width="48" height="48" fill="white"/>
</clipPath>
</defs>
</svg>
