<svg width="48" height="48" viewBox="0 0 48 48" fill="none" xmlns="http://www.w3.org/2000/svg">
<g id="3 51" clip-path="url(#clip0_742_114)">
<path id="Vector" fill-rule="evenodd" clip-rule="evenodd" d="M24 48C37.2548 48 48 37.2548 48 24C48 10.7452 37.2548 0 24 0C10.7452 0 0 10.7452 0 24C0 37.2548 10.7452 48 24 48ZM5.75683 17.1343C3.82027 22.9242 5.91776 27.3132 8.47383 27.8845C11.7142 28.6086 12.8771 25.7696 12.5355 23.7936C12.4713 23.4222 12.3316 22.8754 12.1628 22.2148C11.4338 19.361 10.162 14.382 12.0842 12.2291C11.7144 14.2425 12.3894 15.7675 13.039 17.2354L13.1372 17.4576C13.2536 17.7219 13.3812 17.9757 13.5087 18.2295C14.123 19.4518 14.7378 20.6754 14.115 23.0856C13.6522 24.8765 14.2145 23.3022 14.7156 21.899C15.0289 21.0216 15.3185 20.2111 15.3185 20.3321C16.4365 23.5583 16.1552 25.2088 14.115 27.8845C13.8894 28.0418 17.3493 26.3111 17.8758 23.7936C18.4023 21.2762 17.1989 18.9161 15.3185 16.084C13.4381 13.2518 13.7296 10.4168 14.4911 7.11556C14.6726 6.32887 11.0913 9.73508 9.82772 11.9931C8.56418 14.2511 8.42705 17.3427 8.7513 19.5454C9.07556 21.7482 8.39428 22.2989 8.24819 22.1415C6.98673 20.7829 6.75616 19.3322 6.98275 17.5954C7.12678 16.4914 6.10998 16.0784 5.75683 17.1343ZM40.2589 27.8845C43.0633 27.3025 45.355 22.7583 43.063 16.8071C42.6664 15.7772 41.6405 16.2282 41.8219 17.3168C42.132 19.1782 41.9324 20.7109 40.502 22.1415C40.3446 22.2989 39.6109 21.7482 39.9601 19.5454C40.3093 17.3427 40.1617 14.2511 38.8009 11.9931C37.4402 9.73508 33.5834 6.32887 33.7788 7.11556C34.5989 10.4168 34.9128 13.2518 32.8878 16.084C30.8627 18.9161 29.5667 21.2762 30.1337 23.7936C30.7007 26.3111 34.4268 28.0418 34.1838 27.8845C31.9867 25.2088 31.6838 23.5583 32.8878 20.3321C32.8878 20.2111 33.1995 21.0216 33.537 21.899C34.0767 23.3022 34.6822 24.8765 34.1838 23.0856C33.5131 20.6754 34.1753 19.4518 34.8367 18.2295C34.9741 17.9757 35.1115 17.7219 35.2368 17.4576C35.2545 17.4202 35.2723 17.3829 35.2901 17.3455C35.3076 17.3088 35.3251 17.2721 35.3426 17.2354C36.0422 15.7675 36.7691 14.2425 36.3709 12.2291C38.441 14.382 37.0712 19.361 36.2862 22.2148C36.1044 22.8754 35.954 23.4222 35.8849 23.7936C35.517 25.7696 36.7693 28.6086 40.2589 27.8845ZM17.9369 33.8071C15.645 39.7583 17.9367 44.3025 20.7411 44.8845C24.2307 45.6086 25.483 42.7696 25.1151 40.7936C25.046 40.4222 24.8956 39.8754 24.7138 39.2148C23.9288 36.361 22.559 31.382 24.6291 29.2291C24.2309 31.2425 24.9578 32.7675 25.6574 34.2354C25.6928 34.3096 25.7281 34.3836 25.7632 34.4576C25.8885 34.7219 26.0259 34.9757 26.1633 35.2295C26.8247 36.4518 27.4869 37.6754 26.8162 40.0856C26.3178 41.8765 26.9233 40.3022 27.463 38.899C27.8005 38.0216 28.1122 37.2111 28.1122 37.3321C29.3162 40.5583 29.0133 42.2088 26.8162 44.8845C26.5732 45.0418 30.2993 43.3111 30.8663 40.7936C31.4333 38.2762 30.1373 35.9161 28.1122 33.084C26.0872 30.2518 26.4011 27.4168 27.2212 24.1156C27.4166 23.3289 23.5598 26.7351 22.1991 28.9931C20.8383 31.2511 20.6907 34.3427 21.0399 36.5454C21.3891 38.7482 20.6554 39.2989 20.498 39.1415C19.0676 37.7109 18.868 36.1782 19.1781 34.3168C19.3595 33.2282 18.3336 32.7772 17.9369 33.8071Z" fill="#B11F20"/>
</g>
<defs>
<clipPath id="clip0_742_114">
<rect width="48" height="48" fill="white"/>
</clipPath>
</defs>
</svg>
