<?xml version="1.0" encoding="UTF-8" standalone="no"?>
<svg
   xmlns:dc="http://purl.org/dc/elements/1.1/"
   xmlns:cc="http://creativecommons.org/ns#"
   xmlns:rdf="http://www.w3.org/1999/02/22-rdf-syntax-ns#"
   xmlns:svg="http://www.w3.org/2000/svg"
   xmlns="http://www.w3.org/2000/svg"
   viewBox="0 0 613.33868 403.45868"
   height="403.45868"
   width="613.33868"
   xml:space="preserve"
   id="svg2"
   version="1.1"><metadata
     id="metadata8"><rdf:RDF><cc:Work
         rdf:about=""><dc:format>image/svg+xml</dc:format><dc:type
           rdf:resource="http://purl.org/dc/dcmitype/StillImage" /></cc:Work></rdf:RDF></metadata><defs
     id="defs6"><radialGradient
       id="radialGradient28"
       spreadMethod="pad"
       gradientTransform="matrix(94.317734,0,0,94.317734,160.9165,234.33301)"
       gradientUnits="userSpaceOnUse"
       r="1"
       cy="0"
       cx="0"
       fy="0"
       fx="0"><stop
         id="stop24"
         offset="0"
         style="stop-opacity:1;stop-color:#ed1c24" /><stop
         id="stop26"
         offset="1"
         style="stop-opacity:1;stop-color:#be1e2d" /></radialGradient><linearGradient
       id="linearGradient48"
       spreadMethod="pad"
       gradientTransform="matrix(-163.96332,-133.16812,-133.16812,163.96332,418.90869,294.28223)"
       gradientUnits="userSpaceOnUse"
       y2="0"
       x2="1"
       y1="0"
       x1="0"><stop
         id="stop44"
         offset="0"
         style="stop-opacity:1;stop-color:#7b7b7b" /><stop
         id="stop46"
         offset="1"
         style="stop-opacity:1;stop-color:#454a4d" /></linearGradient><clipPath
       id="clipPath58"
       clipPathUnits="userSpaceOnUse"><path
         id="path56"
         d="M 0,302.594 H 460.004 V 0 H 0 Z" /></clipPath></defs><g
     transform="matrix(1.3333333,0,0,-1.3333333,0,403.45867)"
     id="g10"><g
       id="g12"><g
         id="g14"><g
           id="g20"><g
             id="g22"><path
               id="path30"
               style="fill:url(#radialGradient28);stroke:none"
               d="m 128.561,302.594 c -11.836,0 -22.789,-1.766 -32.856,-5.306 v 0 C 85.636,293.752 76.964,288.889 69.687,282.697 v 0 C 62.408,276.508 56.694,269.161 52.545,260.658 v 0 c -4.151,-8.5 -6.224,-17.719 -6.224,-27.651 v 0 c 0,-9.929 2.073,-19.01 6.224,-27.244 v 0 c 4.149,-8.228 9.863,-15.304 17.142,-21.223 v 0 c 7.277,-5.917 15.949,-10.474 26.018,-13.671 v 0 c 10.067,-3.195 21.02,-4.797 32.856,-4.797 v 0 h 95.706 l -27.14,35.508 h -68.566 c -5.715,0 -11.02,0.817 -15.918,2.449 v 0 c -4.898,1.633 -9.116,3.913 -12.652,6.836 v 0 c -3.541,2.927 -6.326,6.428 -8.367,10.51 v 0 c -2.041,4.081 -3.06,8.571 -3.06,13.468 v 0 c 0,4.898 0.984,9.356 2.958,13.367 v 0 c 1.97,4.015 4.761,7.448 8.366,10.305 v 0 c 3.604,2.857 7.857,5.071 12.755,6.632 v 0 c 4.898,1.566 10.203,2.347 15.918,2.347 v 0 h 35.736 68.77 42.445 v 35.1 z" /></g></g></g></g><g
       id="g32"><g
         id="g34"><g
           id="g40"><g
             id="g42"><path
               id="path50"
               style="fill:url(#linearGradient48);stroke:none"
               d="m 339.997,302.594 -64.485,-55.506 v 14.071 h -42.445 v -95.087 h 42.445 v 58.772 l 66.731,-58.772 h 63.871 l -56.525,45.1 c -8.846,7.208 -16.055,12.856 -21.633,16.937 v 0 c -5.579,4.082 -10.341,7.48 -14.284,10.204 v 0 c 2.174,1.358 4.387,2.786 6.633,4.285 v 0 c 2.244,1.496 4.725,3.196 7.447,5.102 v 0 c 2.721,1.903 5.817,4.148 9.285,6.734 v 0 c 3.469,2.583 7.45,5.577 11.94,8.979 v 0 l 52.24,39.181 z" /></g></g></g></g><g
       id="g52"><g
         clip-path="url(#clipPath58)"
         id="g54"><g
           transform="translate(51.0947,86.1152)"
           id="g60"><path
             id="path62"
             style="fill:#000000;fill-opacity:1;fill-rule:nonzero;stroke:none"
             d="m 0,0 -6.885,-6.562 c -4.683,4.949 -9.952,7.424 -15.806,7.424 -4.941,0 -9.103,-1.689 -12.487,-5.067 -3.384,-3.378 -5.076,-7.543 -5.076,-12.493 0,-3.448 0.749,-6.511 2.248,-9.186 1.498,-2.674 3.618,-4.773 6.358,-6.299 2.74,-1.524 5.784,-2.287 9.132,-2.287 2.857,0 5.468,0.533 7.833,1.602 2.365,1.067 4.964,3.008 7.798,5.823 l 6.674,-6.964 c -3.82,-3.728 -7.43,-6.313 -10.828,-7.755 -3.399,-1.441 -7.277,-2.163 -11.637,-2.163 -8.039,0 -14.619,2.549 -19.74,7.647 -5.121,5.097 -7.682,11.631 -7.682,19.599 0,5.157 1.166,9.739 3.498,13.746 2.332,4.008 5.672,7.231 10.02,9.668 4.347,2.438 9.029,3.657 14.044,3.657 4.266,0 8.373,-0.901 12.323,-2.703 C -6.264,5.886 -2.86,3.322 0,0" /></g><g
           transform="translate(59.6729,95.2041)"
           id="g64"><path
             id="path66"
             style="fill:#000000;fill-opacity:1;fill-rule:nonzero;stroke:none"
             d="M 0,0 H 37.195 V -51.715 H 27.246 V -9.211 H 9.984 V -51.715 H 0 Z" /></g><g
           transform="translate(108.7158,95.2041)"
           id="g68"><path
             id="path70"
             style="fill:#000000;fill-opacity:1;fill-rule:nonzero;stroke:none"
             d="M 0,0 H 28.23 V -9.633 H 9.773 v -9.351 H 28.23 v -9.457 H 9.773 V -42.047 H 28.23 v -9.668 H 0 Z" /></g><g
           transform="translate(146.0869,43.4893)"
           id="g72"><path
             id="path74"
             style="fill:#000000;fill-opacity:1;fill-rule:nonzero;stroke:none"
             d="M 0,0 V 51.715 H 9.984 V 8.859 h 17.332 v 42.856 h 9.95 V 8.859 H 47.777 V -7.734 H 38.566 V 0 Z" /></g><g
           transform="translate(200.1929,95.2041)"
           id="g76"><path
             id="path78"
             style="fill:#000000;fill-opacity:1;fill-rule:nonzero;stroke:none"
             d="M 0,0 H 9.949 V -17.828 L 23.988,0 h 11.82 L 17.749,-23.08 37.563,-51.715 H 25.891 L 9.949,-28.737 V -51.715 H 0 Z" /></g><g
           transform="translate(265.6001,81.4932)"
           id="g80"><path
             id="path82"
             style="fill:#000000;fill-opacity:1;fill-rule:nonzero;stroke:none"
             d="M 0,0 -6.937,-17.754 H 6.898 Z M -5.053,13.711 H 4.93 L 24.82,-38.004 H 14.59 l -4.045,10.652 h -21.104 l -4.207,-10.652 h -10.23 z" /></g><g
           transform="translate(307.8403,66.9033)"
           id="g84"><path
             id="path86"
             style="fill:#000000;fill-opacity:1;fill-rule:nonzero;stroke:none"
             d="m 0,0 v -14.027 h 2.461 c 4.5,0 7.348,0.586 8.543,1.757 1.195,1.172 1.793,2.754 1.793,4.747 C 12.797,-2.508 9.211,0 2.039,0 Z M -9.844,-23.414 V 28.301 H 17.191 V 18.703 H 0 V 8.789 h 2.145 c 4.359,0 7.921,-0.48 10.687,-1.441 2.766,-0.961 5.068,-2.772 6.908,-5.432 1.84,-2.66 2.76,-5.807 2.76,-9.439 0,-3.61 -0.691,-6.487 -2.074,-8.631 -1.383,-2.145 -3.287,-3.891 -5.713,-5.239 -2.426,-1.347 -5.783,-2.021 -10.072,-2.021 z" /></g><g
           transform="translate(339.0239,95.2041)"
           id="g88"><path
             id="path90"
             style="fill:#000000;fill-opacity:1;fill-rule:nonzero;stroke:none"
             d="M 0,0 H 28.23 V -9.633 H 9.773 v -9.351 H 28.23 v -9.457 H 9.773 V -42.047 H 28.23 v -9.668 H 0 Z" /></g><g
           transform="translate(409.9067,43.4893)"
           id="g92"><path
             id="path94"
             style="fill:#000000;fill-opacity:1;fill-rule:nonzero;stroke:none"
             d="M 0,0 -14.316,38.024 -28.879,0 H -39.32 l 19.959,51.715 h 9.984 L 10.514,0 Z" /></g><g
           transform="translate(436.1958,66.9033)"
           id="g96"><path
             id="path98"
             style="fill:#000000;fill-opacity:1;fill-rule:nonzero;stroke:none"
             d="m 0,0 v -14.027 h 2.461 c 4.078,0 6.809,0.504 8.191,1.511 1.383,1.008 2.075,2.731 2.075,5.168 C 12.727,-2.449 9.164,0 2.039,0 Z M -9.844,-23.414 V 28.301 H 0 V 8.789 h 2.145 c 4.101,0 7.517,-0.475 10.248,-1.424 2.73,-0.949 5.091,-2.754 7.084,-5.414 1.992,-2.66 2.988,-5.865 2.988,-9.615 0,-3.539 -0.856,-6.539 -2.567,-9 -1.711,-2.461 -3.697,-4.201 -5.959,-5.221 -2.261,-1.019 -5.361,-1.529 -9.298,-1.529 z" /></g><g
           transform="translate(0,26.3086)"
           id="g100"><path
             id="path102"
             style="fill:#000000;fill-opacity:1;fill-rule:nonzero;stroke:none"
             d="m 0,0 h 2.823 v -9.342 c 1.29,0 2.197,0.25 2.721,0.749 0.524,0.5 1.193,1.7 2.008,3.602 0.592,1.397 1.079,2.384 1.462,2.961 0.383,0.577 0.929,1.062 1.637,1.455 0.708,0.393 1.489,0.59 2.343,0.59 1.087,0 1.659,-0.01 1.717,-0.03 v -2.444 c -0.097,0 -0.286,0.005 -0.567,0.015 -0.311,0.008 -0.5,0.014 -0.568,0.014 -0.902,0 -1.572,-0.218 -2.008,-0.655 C 11.122,-3.521 10.612,-4.453 10.04,-5.879 9.322,-7.683 8.716,-8.82 8.221,-9.291 7.727,-9.762 7.134,-10.138 6.446,-10.419 c 1.377,-0.378 2.736,-1.649 4.075,-3.812 l 4.394,-7.101 h -3.507 l -3.566,5.791 c -0.979,1.601 -1.799,2.699 -2.458,3.296 -0.66,0.597 -1.513,0.895 -2.561,0.895 v -9.982 H 0 Z" /></g><g
           transform="translate(17.3594,26.3086)"
           id="g104"><path
             id="path106"
             style="fill:#000000;fill-opacity:1;fill-rule:nonzero;stroke:none"
             d="M 0,0 H 2.561 V -16.894 L 13.911,0 h 2.837 v -21.332 h -2.56 V -4.481 L 2.823,-21.332 H 0 Z" /></g><path
           id="path108"
           style="fill:#000000;fill-opacity:1;fill-rule:nonzero;stroke:none"
           d="m 41.922,30.601 h 2.735 v -2.982 h -2.735 z m -2.707,-4.292 h 2.823 V 4.977 h -2.823 z m -2.721,4.292 h 2.736 v -2.982 h -2.736 z" /><g
           transform="translate(49.7207,7.4941)"
           id="g110"><path
             id="path112"
             style="fill:#000000;fill-opacity:1;fill-rule:nonzero;stroke:none"
             d="m 0,0 h 5.312 c 0.911,0 1.551,0.033 1.92,0.102 0.65,0.116 1.193,0.31 1.63,0.582 0.436,0.271 0.795,0.667 1.076,1.185 0.282,0.52 0.423,1.118 0.423,1.798 0,0.795 -0.204,1.486 -0.611,2.073 C 9.342,6.327 8.777,6.739 8.054,6.977 7.332,7.215 6.291,7.334 4.933,7.334 H 0 Z m 0,9.851 h 4.613 c 1.251,0 2.148,0.083 2.692,0.248 0.717,0.213 1.258,0.567 1.622,1.061 0.364,0.495 0.546,1.116 0.546,1.863 0,0.708 -0.17,1.331 -0.509,1.87 -0.34,0.539 -0.825,0.907 -1.455,1.106 -0.631,0.198 -1.713,0.298 -3.246,0.298 H 0 Z M -2.823,-2.518 V 18.814 H 5.18 c 1.63,0 2.937,-0.215 3.922,-0.647 0.984,-0.432 1.755,-1.097 2.314,-1.994 0.557,-0.897 0.836,-1.836 0.836,-2.816 0,-0.912 -0.247,-1.77 -0.742,-2.575 -0.494,-0.805 -1.242,-1.455 -2.241,-1.95 1.29,-0.378 2.282,-1.023 2.976,-1.935 0.693,-0.912 1.04,-1.989 1.04,-3.23 0,-1 -0.211,-1.929 -0.633,-2.787 C 12.23,0.021 11.709,-0.641 11.088,-1.106 10.467,-1.571 9.689,-1.924 8.753,-2.161 7.816,-2.398 6.669,-2.518 5.312,-2.518 Z" /></g><g
           transform="translate(81.1226,12.4561)"
           id="g114"><path
             id="path116"
             style="fill:#000000;fill-opacity:1;fill-rule:nonzero;stroke:none"
             d="M 0,0 2.823,-0.713 C 2.231,-3.032 1.167,-4.8 -0.371,-6.018 -1.909,-7.234 -3.788,-7.844 -6.01,-7.844 c -2.299,0 -4.169,0.469 -5.609,1.405 -1.441,0.936 -2.537,2.292 -3.289,4.067 -0.752,1.775 -1.127,3.682 -1.127,5.719 0,2.22 0.424,4.159 1.273,5.813 0.848,1.653 2.056,2.91 3.623,3.769 1.567,0.858 3.291,1.287 5.173,1.287 2.134,0 3.929,-0.543 5.384,-1.629 C 0.873,11.5 1.887,9.972 2.459,8.003 L -0.32,7.348 c -0.495,1.552 -1.213,2.682 -2.154,3.39 -0.941,0.708 -2.124,1.063 -3.55,1.063 -1.64,0 -3.01,-0.393 -4.111,-1.179 -1.101,-0.786 -1.875,-1.841 -2.321,-3.165 -0.446,-1.324 -0.669,-2.689 -0.669,-4.096 0,-1.814 0.264,-3.397 0.793,-4.751 0.529,-1.353 1.351,-2.365 2.466,-3.034 1.116,-0.669 2.324,-1.004 3.624,-1.004 1.581,0 2.919,0.456 4.015,1.368 C -1.13,-3.148 -0.389,-1.795 0,0" /></g><g
           transform="translate(90.3477,7.3779)"
           id="g118"><path
             id="path120"
             style="fill:#000000;fill-opacity:1;fill-rule:nonzero;stroke:none"
             d="m 0,0 h 5.166 c 2.095,0 3.46,0.371 4.096,1.112 0.635,0.742 0.953,1.638 0.953,2.686 0,0.853 -0.231,1.578 -0.691,2.175 C 9.063,6.569 8.449,6.955 7.683,7.13 6.917,7.305 5.617,7.392 3.784,7.392 H 0 Z M -2.823,18.931 H 0 v -9.11 h 5.093 c 2.377,0 4.098,-0.276 5.166,-0.829 1.067,-0.553 1.833,-1.305 2.299,-2.256 0.465,-0.95 0.698,-1.929 0.698,-2.938 0,-1.65 -0.563,-3.095 -1.688,-4.337 -1.125,-1.241 -3.22,-1.862 -6.286,-1.862 h -8.105 z" /></g><g
           transform="translate(107.0234,26.3086)"
           id="g122"><path
             id="path124"
             style="fill:#000000;fill-opacity:1;fill-rule:nonzero;stroke:none"
             d="m 0,0 h 2.823 v -9.342 c 1.29,0 2.197,0.25 2.721,0.749 0.524,0.5 1.193,1.7 2.008,3.602 0.592,1.397 1.079,2.384 1.462,2.961 0.383,0.577 0.929,1.062 1.637,1.455 0.708,0.393 1.489,0.59 2.343,0.59 1.087,0 1.659,-0.01 1.716,-0.03 v -2.444 c -0.096,0 -0.285,0.005 -0.566,0.015 -0.311,0.008 -0.5,0.014 -0.568,0.014 -0.902,0 -1.572,-0.218 -2.008,-0.655 C 11.122,-3.521 10.612,-4.453 10.04,-5.879 9.322,-7.683 8.716,-8.82 8.221,-9.291 7.727,-9.762 7.135,-10.138 6.446,-10.419 c 1.377,-0.378 2.736,-1.649 4.075,-3.812 l 4.394,-7.101 h -3.507 l -3.565,5.791 c -0.98,1.601 -1.8,2.699 -2.459,3.296 -0.66,0.597 -1.513,0.895 -2.561,0.895 v -9.982 H 0 Z" /></g><g
           transform="translate(124.3828,26.3086)"
           id="g126"><path
             id="path128"
             style="fill:#000000;fill-opacity:1;fill-rule:nonzero;stroke:none"
             d="M 0,0 H 2.561 V -16.894 L 13.911,0 h 2.837 V -21.332 H 14.187 V -4.481 L 2.823,-21.332 H 0 Z" /></g><g
           transform="translate(156.4102,31.3867)"
           id="g130"><path
             id="path132"
             style="fill:#000000;fill-opacity:1;fill-rule:nonzero;stroke:none"
             d="M 0,0 H 1.79 C 1.644,-1.213 1.2,-2.144 0.458,-2.794 c -0.742,-0.649 -1.729,-0.975 -2.961,-0.975 -1.242,0 -2.234,0.323 -2.976,0.968 C -6.221,-2.156 -6.665,-1.223 -6.81,0 h 1.789 c 0.137,-0.66 0.406,-1.152 0.808,-1.477 0.402,-0.325 0.943,-0.487 1.623,-0.487 0.785,0 1.38,0.157 1.782,0.473 C -0.405,-1.176 -0.136,-0.679 0,0 m -10.608,-5.078 h 2.561 V -21.972 L 3.303,-5.078 H 6.14 V -26.41 H 3.58 V -9.56 L -7.785,-26.41 h -2.823 z" /></g><g
           transform="translate(175.501,26.3086)"
           id="g134"><path
             id="path136"
             style="fill:#000000;fill-opacity:1;fill-rule:nonzero;stroke:none"
             d="m 0,0 h 2.823 v -9.342 c 1.29,0 2.197,0.25 2.721,0.749 0.524,0.5 1.193,1.7 2.007,3.602 0.593,1.397 1.08,2.384 1.463,2.961 0.383,0.577 0.929,1.062 1.637,1.455 0.708,0.393 1.489,0.59 2.343,0.59 1.087,0 1.659,-0.01 1.716,-0.03 v -2.444 c -0.096,0 -0.285,0.005 -0.566,0.015 -0.311,0.008 -0.5,0.014 -0.568,0.014 -0.902,0 -1.572,-0.218 -2.008,-0.655 C 11.122,-3.521 10.612,-4.453 10.04,-5.879 9.322,-7.683 8.716,-8.82 8.221,-9.291 7.726,-9.762 7.135,-10.138 6.446,-10.419 c 1.377,-0.378 2.736,-1.649 4.075,-3.812 l 4.394,-7.101 h -3.507 l -3.565,5.791 c -0.98,1.601 -1.8,2.699 -2.46,3.296 -0.659,0.597 -1.512,0.895 -2.56,0.895 v -9.982 H 0 Z" /></g><g
           transform="translate(196.6289,13.7363)"
           id="g138"><path
             id="path140"
             style="fill:#000000;fill-opacity:1;fill-rule:nonzero;stroke:none"
             d="M 0,0 H 7.232 L 5.005,5.908 C 4.327,7.702 3.822,9.177 3.492,10.331 3.221,8.964 2.837,7.605 2.343,6.257 Z m -6.155,-8.76 8.192,21.332 h 3.042 l 8.73,-21.332 h -3.216 l -2.488,6.461 h -8.92 L -3.157,-8.76 Z" /></g><g
           transform="translate(215.6475,7.3779)"
           id="g142"><path
             id="path144"
             style="fill:#000000;fill-opacity:1;fill-rule:nonzero;stroke:none"
             d="m 0,0 h 5.646 c 1.523,0 2.665,0.31 3.427,0.931 0.761,0.621 1.141,1.551 1.141,2.794 0,0.882 -0.217,1.62 -0.654,2.212 C 9.124,6.528 8.517,6.921 7.741,7.115 6.964,7.309 5.641,7.406 3.769,7.406 H 0 Z M -2.823,18.931 H 11.015 V 16.413 H 0 V 9.836 h 5.093 c 1.882,0 3.378,-0.18 4.489,-0.538 1.11,-0.36 2.001,-1.036 2.67,-2.03 0.669,-0.995 1.004,-2.152 1.004,-3.47 0,-1.077 -0.24,-2.084 -0.72,-3.02 -0.481,-0.936 -1.196,-1.7 -2.147,-2.292 -0.951,-0.591 -2.57,-0.887 -4.86,-0.887 h -8.352 z" /></g><g
           transform="translate(232.3086,4.9766)"
           id="g146"><path
             id="path148"
             style="fill:#000000;fill-opacity:1;fill-rule:nonzero;stroke:none"
             d="M 0,0 V 21.332 H 15.424 V 18.814 H 2.823 V 12.281 H 14.624 V 9.778 H 2.823 V 2.518 H 15.918 V 0 Z" /></g><g
           transform="translate(253.6841,26.3086)"
           id="g150"><path
             id="path152"
             style="fill:#000000;fill-opacity:1;fill-rule:nonzero;stroke:none"
             d="M 0,0 H 13.357 V -21.332 H 10.534 V -2.518 H 2.822 v -10.986 c 0,-2.23 -0.104,-3.865 -0.312,-4.903 -0.209,-1.038 -0.648,-1.846 -1.318,-2.423 -0.669,-0.577 -1.517,-0.866 -2.546,-0.866 -0.621,0 -1.368,0.117 -2.241,0.349 l 0.481,2.503 c 0.466,-0.194 0.863,-0.291 1.193,-0.291 0.64,0 1.12,0.24 1.441,0.721 0.32,0.479 0.48,1.612 0.48,3.397 z" /></g><g
           transform="translate(274.6079,7.3779)"
           id="g154"><path
             id="path156"
             style="fill:#000000;fill-opacity:1;fill-rule:nonzero;stroke:none"
             d="m 0,0 h 5.166 c 2.095,0 3.461,0.371 4.096,1.112 0.635,0.742 0.953,1.638 0.953,2.686 0,0.853 -0.231,1.578 -0.692,2.175 C 9.063,6.569 8.449,6.955 7.684,7.13 6.917,7.305 5.617,7.392 3.783,7.392 H 0 Z M -2.822,18.931 H 0 v -9.11 h 5.093 c 2.377,0 4.098,-0.276 5.166,-0.829 1.067,-0.553 1.833,-1.305 2.299,-2.256 0.465,-0.95 0.698,-1.929 0.698,-2.938 0,-1.65 -0.563,-3.095 -1.688,-4.337 -1.125,-1.241 -3.22,-1.862 -6.286,-1.862 h -8.104 z" /></g><g
           transform="translate(291.3276,4.9766)"
           id="g158"><path
             id="path160"
             style="fill:#000000;fill-opacity:1;fill-rule:nonzero;stroke:none"
             d="m 0,0 v 21.332 h 2.822 v -8.76 H 13.91 v 8.76 h 2.823 V 0 H 13.91 V 10.055 H 2.822 L 2.822,0 Z" /></g><g
           transform="translate(312.8052,26.3086)"
           id="g162"><path
             id="path164"
             style="fill:#000000;fill-opacity:1;fill-rule:nonzero;stroke:none"
             d="M 0,0 H 2.561 V -16.894 L 13.911,0 h 2.837 v -21.332 h -2.56 V -4.481 L 2.823,-21.332 H 0 Z" /></g><g
           transform="translate(344.8315,31.3867)"
           id="g166"><path
             id="path168"
             style="fill:#000000;fill-opacity:1;fill-rule:nonzero;stroke:none"
             d="M 0,0 H 1.79 C 1.645,-1.213 1.201,-2.144 0.459,-2.794 c -0.742,-0.649 -1.73,-0.975 -2.962,-0.975 -1.241,0 -2.233,0.323 -2.976,0.968 C -6.221,-2.156 -6.664,-1.223 -6.81,0 h 1.79 c 0.136,-0.66 0.405,-1.152 0.808,-1.477 0.402,-0.325 0.943,-0.487 1.622,-0.487 0.786,0 1.38,0.157 1.782,0.473 C -0.405,-1.176 -0.136,-0.679 0,0 m -10.607,-5.078 h 2.56 V -21.972 L 3.304,-5.078 H 6.141 V -26.41 H 3.58 V -9.56 L -7.784,-26.41 h -2.823 z" /></g><g
           transform="translate(362.7153,11.001)"
           id="g170"><path
             id="path172"
             style="fill:#000000;fill-opacity:1;fill-rule:nonzero;stroke:none"
             d="m 0,0 2.692,0.698 c 0.204,-1.038 0.749,-2.076 1.637,-3.114 0.888,-1.038 2.064,-1.557 3.528,-1.557 1.495,0 2.673,0.383 3.537,1.15 0.863,0.766 1.294,1.692 1.294,2.779 0,1.174 -0.456,2.107 -1.367,2.801 C 10.409,3.45 9.167,3.798 7.596,3.798 H 6.242 v 2.459 c 1.3,0 2.295,0.075 2.984,0.225 0.688,0.151 1.296,0.534 1.826,1.15 0.528,0.616 0.793,1.316 0.793,2.102 0,0.932 -0.362,1.742 -1.084,2.43 -0.723,0.69 -1.7,1.033 -2.932,1.033 -1.077,0 -1.996,-0.268 -2.758,-0.807 C 4.31,11.852 3.783,11.139 3.492,10.251 3.201,9.363 3.056,8.701 3.056,8.265 L 0.35,8.876 c 0.669,4.53 3.171,6.795 7.507,6.795 2.086,0 3.741,-0.579 4.962,-1.738 1.223,-1.16 1.834,-2.516 1.834,-4.068 0,-1.988 -0.941,-3.531 -2.823,-4.627 1.087,-0.301 1.996,-0.915 2.729,-1.841 0.732,-0.926 1.098,-2.035 1.098,-3.325 0,-1.833 -0.711,-3.368 -2.132,-4.605 C 12.104,-5.77 10.22,-6.389 7.872,-6.389 3.837,-6.389 1.213,-4.259 0,0" /></g><g
           transform="translate(385.6909,13.7363)"
           id="g174"><path
             id="path176"
             style="fill:#000000;fill-opacity:1;fill-rule:nonzero;stroke:none"
             d="M 0,0 H 7.232 L 5.006,5.908 C 4.326,7.702 3.822,9.177 3.492,10.331 3.221,8.964 2.838,7.605 2.343,6.257 Z M -6.155,-8.76 2.037,12.572 H 5.078 L 13.81,-8.76 H 10.594 L 8.105,-2.299 H -0.814 L -3.157,-8.76 Z" /></g><g
           transform="translate(404.4624,7.4941)"
           id="g178"><path
             id="path180"
             style="fill:#000000;fill-opacity:1;fill-rule:nonzero;stroke:none"
             d="m 0,0 h 5.311 c 0.912,0 1.552,0.033 1.92,0.102 0.651,0.116 1.194,0.31 1.63,0.582 0.437,0.271 0.795,0.667 1.077,1.185 0.282,0.52 0.422,1.118 0.422,1.798 0,0.795 -0.204,1.486 -0.611,2.073 C 9.342,6.327 8.776,6.739 8.054,6.977 7.331,7.215 6.291,7.334 4.933,7.334 H 0 Z m 0,9.851 h 4.612 c 1.252,0 2.149,0.083 2.693,0.248 0.717,0.213 1.258,0.567 1.622,1.061 0.364,0.495 0.546,1.116 0.546,1.863 0,0.708 -0.17,1.331 -0.51,1.87 -0.34,0.539 -0.824,0.907 -1.455,1.106 -0.631,0.198 -1.712,0.298 -3.244,0.298 H 0 Z M -2.823,-2.518 V 18.814 H 5.18 c 1.63,0 2.937,-0.215 3.922,-0.647 0.984,-0.432 1.755,-1.097 2.313,-1.994 0.558,-0.897 0.837,-1.836 0.837,-2.816 0,-0.912 -0.248,-1.77 -0.742,-2.575 -0.495,-0.805 -1.242,-1.455 -2.241,-1.95 1.29,-0.378 2.282,-1.023 2.975,-1.935 0.694,-0.912 1.041,-1.989 1.041,-3.23 0,-1 -0.211,-1.929 -0.633,-2.787 C 12.229,0.021 11.708,-0.641 11.088,-1.106 10.467,-1.571 9.688,-1.924 8.752,-2.161 7.816,-2.398 6.669,-2.518 5.311,-2.518 Z" /></g><g
           transform="translate(422.6948,15.3223)"
           id="g182"><path
             id="path184"
             style="fill:#000000;fill-opacity:1;fill-rule:nonzero;stroke:none"
             d="m 0,0 c 0,-2.57 0.691,-4.596 2.073,-6.075 1.383,-1.48 3.116,-2.219 5.202,-2.219 2.125,0 3.873,0.747 5.246,2.241 1.373,1.493 2.059,3.614 2.059,6.359 0,1.736 -0.293,3.252 -0.88,4.547 C 13.113,6.148 12.255,7.152 11.125,7.865 9.994,8.578 8.726,8.935 7.319,8.935 5.321,8.935 3.602,8.248 2.161,6.876 0.721,5.503 0,3.211 0,0 m -2.91,0.044 c 0,3.541 0.951,6.312 2.852,8.315 1.901,2.004 4.356,3.005 7.363,3.005 1.969,0 3.744,-0.47 5.326,-1.411 1.581,-0.941 2.786,-2.253 3.615,-3.936 0.83,-1.683 1.244,-3.592 1.244,-5.726 0,-2.163 -0.436,-4.099 -1.309,-5.806 -0.873,-1.708 -2.11,-3 -3.71,-3.878 -1.601,-0.878 -3.328,-1.317 -5.181,-1.317 -2.008,0 -3.803,0.485 -5.384,1.456 -1.581,0.97 -2.779,2.294 -3.593,3.972 -0.816,1.678 -1.223,3.454 -1.223,5.326" /></g><g
           transform="translate(455.2603,23.791)"
           id="g186"><path
             id="path188"
             style="fill:#000000;fill-opacity:1;fill-rule:nonzero;stroke:none"
             d="m 0,0 h -7.436 v -1.091 c 0,-1.814 -0.162,-4.296 -0.487,-7.443 -0.325,-3.149 -0.963,-5.736 -1.913,-7.763 l 9.836,0 z M -10.156,2.518 H 2.823 v -18.815 h 1.921 v -7.494 H 2.227 v 4.977 h -14.1 v -4.977 h -2.518 v 7.494 h 1.66 c 1.716,2.59 2.575,7.823 2.575,15.7 z" /></g></g></g></g></svg>