<svg width="143" height="62" viewBox="0 0 143 62" fill="none" xmlns="http://www.w3.org/2000/svg">
<g clip-path="url(#clip0_475_665)">
<path d="M71.4294 2.94073C67.8947 2.94073 65.6235 13.3623 62.7199 29.4978C62.6731 29.7581 62.9978 29.8916 63.1339 29.6647C66.6621 23.7884 69.4754 13.2928 71.4294 13.2928C73.3708 13.2928 76.5183 21.8413 80.0428 29.2209C80.1634 29.4735 80.5341 29.3576 80.4908 29.0815C78.08 13.7471 74.9293 2.94073 71.4294 2.94073Z" fill="#B11F20"/>
<path d="M65.8654 0.130442C47.175 1.56143 39.0183 5.11103 28.3293 14.0251C28.1535 14.1716 28.2544 14.4585 28.4838 14.4585H45.1454C45.2436 14.4585 45.333 14.399 45.3726 14.3093C48.1477 8.01932 53.5637 4.99845 65.9602 0.604843C66.2304 0.509064 66.1514 0.108545 65.8654 0.130442Z" fill="#B11F20"/>
<path d="M71.4554 32.0766L65.9006 23.0893C65.8199 22.9587 65.9144 22.7905 66.0685 22.7905H77.1777C77.3317 22.7905 77.4262 22.9587 77.3455 23.0893L71.7907 32.0766C71.7139 32.2008 71.5322 32.2008 71.4554 32.0766Z" fill="#B11F20"/>
<path d="M77.1346 0.130442C95.825 1.56143 103.982 5.11103 114.671 14.0251C114.846 14.1716 114.746 14.4585 114.516 14.4585H97.8546C97.7564 14.4585 97.667 14.399 97.6274 14.3093C94.8523 8.01932 89.4363 4.99845 77.0398 0.604843C76.7696 0.509064 76.8486 0.108545 77.1346 0.130442Z" fill="#B11F20"/>
<path d="M77.1346 36.3835C95.825 34.9523 103.982 31.4029 114.671 22.4888C114.846 22.3422 114.746 22.0554 114.516 22.0554H97.8546C97.7564 22.0554 97.667 22.1148 97.6274 22.2045C94.8523 28.4945 89.4363 31.5154 77.0398 35.909C76.7696 36.0049 76.8486 36.4053 77.1346 36.3835Z" fill="#B11F20"/>
<path d="M65.8654 36.3835C47.175 34.9523 39.0183 31.4029 28.3293 22.4888C28.1535 22.3422 28.2544 22.0554 28.4838 22.0554H45.1454C45.2436 22.0554 45.333 22.1148 45.3726 22.2045C48.1477 28.4945 53.5637 31.5154 65.9602 35.909C66.2304 36.0049 66.1514 36.4053 65.8654 36.3835Z" fill="#B11F20"/>
<path fill-rule="evenodd" clip-rule="evenodd" d="M0.017193 61.7125L7.60905 44.2349C7.64181 44.1594 7.71661 44.1107 7.79931 44.1107H11.4122C11.4949 44.1107 11.5696 44.1594 11.6024 44.2349L19.1943 61.7125C19.2533 61.8483 19.153 62 19.004 62H14.2704C14.19 62 14.1169 61.9537 14.0828 61.8814L12.5845 57.8815C12.5504 57.8092 12.1446 57.8815 12.0643 57.8815L6.93469 57.9352C6.84185 57.9352 6.76033 57.9964 6.7352 58.0854L4.85627 61.8498C4.83114 61.9387 4.74962 62 4.65678 62H0.207445C0.0584469 62 -0.0418564 61.8483 0.017193 61.7125ZM11.4579 53.965C11.5032 54.1218 11.3851 54.2779 11.2214 54.2779H7.98897C7.82557 54.2779 7.70753 54.1223 7.75225 53.966L8.4355 51.5752L9.16305 48.9244C9.19229 48.8178 9.28954 48.7437 9.40047 48.7437H9.80175C9.91271 48.7437 10.0099 48.8178 10.0392 48.9244L10.7667 51.5752L11.4579 53.965Z" fill="#B11F20"/>
<path fill-rule="evenodd" clip-rule="evenodd" d="M34.9673 61.7125L42.5591 44.2349C42.5918 44.1594 42.6666 44.1107 42.7493 44.1107H46.3622C46.4449 44.1107 46.5198 44.1594 46.5525 44.2349L54.1443 61.7125C54.2034 61.8483 54.103 62 53.954 62H49.2205C49.14 62 49.0669 61.9537 49.0327 61.8814L47.5346 57.8815C47.5003 57.8092 47.0947 57.8815 47.0142 57.8815L41.8847 57.9352C41.7919 57.9352 41.7104 57.9964 41.6853 58.0854L39.8064 61.8498C39.7813 61.9387 39.6996 62 39.6068 62H35.1575C35.0084 62 34.9082 61.8483 34.9673 61.7125ZM46.408 53.965C46.4533 54.1218 46.3352 54.2779 46.1715 54.2779H42.9391C42.7757 54.2779 42.6575 54.1223 42.7023 53.966L43.3856 51.5752L44.1131 48.9244C44.1424 48.8178 44.2396 48.7437 44.3506 48.7437H44.7518C44.8628 48.7437 44.9601 48.8178 44.9893 48.9244L45.7169 51.5752L46.408 53.965Z" fill="#B11F20"/>
<path fill-rule="evenodd" clip-rule="evenodd" d="M110.528 61.7125L118.12 44.2349C118.153 44.1594 118.228 44.1107 118.31 44.1107H121.923C122.006 44.1107 122.081 44.1594 122.114 44.2349L129.705 61.7125C129.764 61.8483 129.664 62 129.515 62H124.782C124.701 62 124.628 61.9537 124.594 61.8814L123.096 57.8815C123.061 57.8092 122.656 57.8815 122.575 57.8815L117.446 57.9352C117.353 57.9352 117.272 57.9964 117.246 58.0854L115.368 61.8498C115.342 61.9387 115.261 62 115.168 62H110.719C110.57 62 110.469 61.8483 110.528 61.7125ZM121.969 53.965C122.014 54.1218 121.896 54.2779 121.733 54.2779H118.5C118.337 54.2779 118.219 54.1223 118.263 53.966L118.947 51.5752L119.674 48.9244C119.704 48.8178 119.801 48.7437 119.912 48.7437H120.313C120.424 48.7437 120.521 48.8178 120.55 48.9244L121.278 51.5752L121.969 53.965Z" fill="#B11F20"/>
<path d="M20.4286 61.6253V44.1107C20.4286 43.9754 20.5388 43.8656 20.6747 43.8656H24.9815C25.1176 43.8656 25.2276 43.9754 25.2276 44.1107V57.9984C25.2276 58.1339 25.3378 58.2435 25.4737 58.2435H33.8014C33.9375 58.2435 34.0476 58.3533 34.0476 58.4885V61.6253C34.0476 61.7608 33.9375 61.8703 33.8014 61.8703H20.6747C20.5388 61.8703 20.4286 61.7608 20.4286 61.6253Z" fill="#B11F20"/>
<path d="M57.0954 53.133L51.1679 44.377C51.0577 44.2143 51.1748 43.9952 51.372 43.9952H55.6903C55.7813 43.9952 55.8648 44.0452 55.9076 44.1251L58.8815 49.6941C58.9244 49.774 59.0078 49.824 59.0989 49.824H59.8437C59.9333 49.824 60.0155 49.7757 60.059 49.6978L63.161 44.1214C63.2043 44.0435 63.2867 43.9952 63.3763 43.9952H67.589C67.7818 43.9952 67.8997 44.2057 67.7985 44.369L62.3601 53.1328C62.3362 53.1712 62.3234 53.2158 62.3234 53.2614V61.6253C62.3234 61.7608 62.2131 61.8704 62.0773 61.8704H57.6334C57.5003 61.8704 57.3915 61.7652 57.3876 61.6326L57.1372 53.2626C57.1358 53.2163 57.1212 53.1715 57.0954 53.133Z" fill="#B11F20"/>
<path d="M76.2018 61.7549V44.2403C76.2018 44.1048 76.312 43.9952 76.4479 43.9952H80.6252C80.761 43.9952 80.8713 44.1048 80.8713 44.2403V50.2266C80.8713 50.3619 80.9813 50.4717 81.1174 50.4717H87.3698C87.5057 50.4717 87.6159 50.3619 87.6159 50.2266V44.2403C87.6159 44.1048 87.7262 43.9952 87.8621 43.9952H91.9094C92.0455 43.9952 92.1555 44.1048 92.1555 44.2403V61.7549C92.1555 61.8902 92.0455 62 91.9094 62H87.8621C87.7262 62 87.6159 61.8902 87.6159 61.7549V54.8617C87.6159 54.7264 87.5057 54.6166 87.3698 54.6166H84.2435H81.1174C80.9813 54.6166 80.8713 54.7264 80.8713 54.8617V61.7549C80.8713 61.8902 80.761 62 80.6252 62H76.4479C76.312 62 76.2018 61.8902 76.2018 61.7549Z" fill="#B11F20"/>
<path d="M95.0091 61.7549V44.2403C95.0091 44.1048 95.1194 43.9952 95.2552 43.9952H108.771C108.907 43.9952 109.017 44.1048 109.017 44.2403V46.8588C109.017 46.9943 108.907 47.1038 108.771 47.1038H99.5354C99.3995 47.1038 99.2893 47.2136 99.2893 47.3489V51.0039C99.2893 51.1392 99.3995 51.249 99.5354 51.249H108.771C108.907 51.249 109.017 51.3585 109.017 51.4941V54.3715C109.017 54.5071 108.907 54.6166 108.771 54.6166H99.5354C99.3995 54.6166 99.2893 54.7264 99.2893 54.8617V58.3871C99.2893 58.5224 99.3995 58.6321 99.5354 58.6321H108.771C108.907 58.6321 109.017 58.7419 109.017 58.8772V61.7549C109.017 61.8902 108.907 62 108.771 62H95.2552C95.1194 62 95.0091 61.8902 95.0091 61.7549Z" fill="#B11F20"/>
<path d="M133.142 61.7549V47.3489C133.142 47.2136 133.032 47.1038 132.896 47.1038H130.354H127.811C127.675 47.1038 127.565 46.9943 127.565 46.8588V44.2403C127.565 44.1048 127.675 43.9952 127.811 43.9952H135.282H142.754C142.89 43.9952 143 44.1048 143 44.2403V46.8588C143 46.9943 142.89 47.1038 142.754 47.1038H137.669C137.533 47.1038 137.423 47.2136 137.423 47.3489V61.7549C137.423 61.8902 137.313 62 137.177 62H133.388C133.253 62 133.142 61.8902 133.142 61.7549Z" fill="#B11F20"/>
</g>
<defs>
<clipPath id="clip0_475_665">
<rect width="143" height="62" fill="white"/>
</clipPath>
</defs>
</svg>
