<svg width="203" height="30" viewBox="0 0 203 30" fill="none" xmlns="http://www.w3.org/2000/svg">
<path d="M35.0348 2.26703C32.1675 2.26703 30.3251 10.6715 27.9698 23.684C27.9318 23.8939 28.1952 24.0016 28.3056 23.8186C31.1677 19.0796 33.4497 10.6154 35.0348 10.6154C36.6097 10.6154 39.1629 17.5094 42.0219 23.4607C42.1198 23.6645 42.4205 23.571 42.3853 23.3483C40.4297 10.9819 37.8739 2.26703 35.0348 2.26703Z" fill="#B11F20"/>
<path d="M30.5213 0.000697144C15.3598 1.15472 8.74321 4.0173 0.0723636 11.206C-0.0701906 11.3242 0.0116679 11.5556 0.197747 11.5556H13.7134C13.7931 11.5556 13.8656 11.5076 13.8977 11.4353C16.1488 6.36269 20.5423 3.92651 30.5981 0.383279C30.8174 0.306037 30.7533 -0.0169621 30.5213 0.000697144Z" fill="#B11F20"/>
<path d="M35.0558 25.7637L30.5498 18.5159C30.4843 18.4106 30.561 18.275 30.686 18.275H39.6976C39.8226 18.275 39.8993 18.4106 39.8338 18.5159L35.3278 25.7637C35.2655 25.8639 35.1181 25.8639 35.0558 25.7637Z" fill="#B11F20"/>
<path d="M39.6626 0.000697144C54.8241 1.15472 61.4407 4.0173 70.1115 11.206C70.2541 11.3242 70.1722 11.5556 69.9862 11.5556H56.4705C56.3908 11.5556 56.3183 11.5076 56.2862 11.4353C54.0351 6.36269 49.6416 3.92651 39.5858 0.383279C39.3666 0.306037 39.4306 -0.0169621 39.6626 0.000697144Z" fill="#B11F20"/>
<path d="M39.6626 29.237C54.8241 28.0829 61.4407 25.2204 70.1115 18.0316C70.2541 17.9134 70.1722 17.6821 69.9862 17.6821H56.4705C56.3908 17.6821 56.3183 17.73 56.2862 17.8024C54.0351 22.875 49.6416 25.3111 39.5858 28.8544C39.3666 28.9317 39.4306 29.2546 39.6626 29.237Z" fill="#B11F20"/>
<path d="M30.5213 29.237C15.3598 28.0829 8.74321 25.2204 0.0723636 18.0316C-0.0701906 17.9134 0.0116679 17.6821 0.197747 17.6821H13.7134C13.7931 17.6821 13.8656 17.73 13.8977 17.8024C16.1488 22.875 20.5423 25.3111 30.5981 28.8544C30.8174 28.9317 30.7533 29.2546 30.5213 29.237Z" fill="#B11F20"/>
<path fill-rule="evenodd" clip-rule="evenodd" d="M86.106 21.3927L92.2644 7.29783C92.291 7.23696 92.3517 7.19763 92.4188 7.19763H95.3495C95.4165 7.19763 95.4772 7.23696 95.5038 7.29783L101.662 21.3927C101.71 21.5022 101.629 21.6245 101.508 21.6245H97.668C97.6028 21.6245 97.5435 21.5872 97.5158 21.5289L96.3005 18.3032C96.2728 18.2449 95.9436 18.3032 95.8784 18.3032L91.7174 18.3464C91.6421 18.3464 91.5759 18.3959 91.5556 18.4676L90.0314 21.5034C90.011 21.5751 89.9449 21.6245 89.8696 21.6245H86.2603C86.1395 21.6245 86.0581 21.5022 86.106 21.3927ZM95.3866 15.1447C95.4233 15.2711 95.3275 15.397 95.1947 15.397H92.5726C92.4401 15.397 92.3443 15.2715 92.3806 15.1455L92.9348 13.2174L93.525 11.0796C93.5487 10.9937 93.6276 10.934 93.7176 10.934H94.0431C94.1331 10.934 94.212 10.9937 94.2357 11.0796L94.8259 13.2174L95.3866 15.1447Z" fill="#B11F20"/>
<path fill-rule="evenodd" clip-rule="evenodd" d="M114.457 21.3927L120.615 7.29783C120.642 7.23696 120.703 7.19763 120.77 7.19763H123.701C123.768 7.19763 123.828 7.23696 123.855 7.29783L130.013 21.3927C130.061 21.5022 129.98 21.6245 129.859 21.6245H126.019C125.954 21.6245 125.895 21.5872 125.867 21.5289L124.652 18.3032C124.624 18.2449 124.295 18.3032 124.229 18.3032L120.068 18.3464C119.993 18.3464 119.927 18.3959 119.907 18.4676L118.383 21.5034C118.362 21.5751 118.296 21.6245 118.221 21.6245H114.611C114.49 21.6245 114.409 21.5022 114.457 21.3927ZM123.738 15.1447C123.774 15.2711 123.679 15.397 123.546 15.397H120.924C120.791 15.397 120.695 15.2715 120.732 15.1455L121.286 13.2174L121.876 11.0796C121.9 10.9937 121.979 10.934 122.069 10.934H122.394C122.484 10.934 122.563 10.9937 122.587 11.0796L123.177 13.2174L123.738 15.1447Z" fill="#B11F20"/>
<path fill-rule="evenodd" clip-rule="evenodd" d="M175.752 21.3927L181.91 7.29783C181.936 7.23696 181.997 7.19763 182.064 7.19763H184.995C185.062 7.19763 185.123 7.23696 185.149 7.29783L191.308 21.3927C191.356 21.5022 191.274 21.6245 191.153 21.6245H187.314C187.248 21.6245 187.189 21.5872 187.161 21.5289L185.946 18.3032C185.918 18.2449 185.589 18.3032 185.524 18.3032L181.363 18.3464C181.288 18.3464 181.221 18.3959 181.201 18.4676L179.677 21.5034C179.657 21.5751 179.59 21.6245 179.515 21.6245H175.906C175.785 21.6245 175.704 21.5022 175.752 21.3927ZM185.032 15.1447C185.069 15.2711 184.973 15.397 184.84 15.397H182.218C182.086 15.397 181.99 15.2715 182.026 15.1455L182.58 13.2174L183.171 11.0796C183.194 10.9937 183.273 10.934 183.363 10.934H183.689C183.779 10.934 183.858 10.9937 183.881 11.0796L184.471 13.2174L185.032 15.1447Z" fill="#B11F20"/>
<path d="M102.664 21.3223V7.19763C102.664 7.08854 102.753 7 102.863 7H106.357C106.467 7 106.556 7.08854 106.556 7.19763V18.3974C106.556 18.5067 106.646 18.5951 106.756 18.5951H113.511C113.622 18.5951 113.711 18.6836 113.711 18.7927V21.3223C113.711 21.4316 113.622 21.52 113.511 21.52H102.863C102.753 21.52 102.664 21.4316 102.664 21.3223Z" fill="#B11F20"/>
<path d="M132.407 14.4737L127.599 7.41246C127.509 7.28123 127.605 7.10455 127.764 7.10455H131.267C131.341 7.10455 131.409 7.14487 131.444 7.2093L133.856 11.7004C133.891 11.7648 133.959 11.8051 134.032 11.8051H134.637C134.709 11.8051 134.776 11.7662 134.811 11.7034L137.328 7.20633C137.363 7.14349 137.43 7.10455 137.502 7.10455H140.92C141.076 7.10455 141.172 7.27431 141.089 7.40594L136.678 14.4735C136.659 14.5046 136.648 14.5405 136.648 14.5773V21.3223C136.648 21.4316 136.559 21.52 136.448 21.52H132.844C132.736 21.52 132.647 21.4352 132.644 21.3283L132.441 14.5783C132.44 14.5409 132.428 14.5048 132.407 14.4737Z" fill="#B11F20"/>
<path d="M147.906 21.4269V7.30218C147.906 7.19289 147.995 7.10455 148.106 7.10455H151.494C151.604 7.10455 151.694 7.19289 151.694 7.30218V12.1298C151.694 12.2389 151.783 12.3275 151.894 12.3275H156.965C157.076 12.3275 157.165 12.2389 157.165 12.1298V7.30218C157.165 7.19289 157.254 7.10455 157.365 7.10455H160.648C160.758 7.10455 160.847 7.19289 160.847 7.30218V21.4269C160.847 21.536 160.758 21.6245 160.648 21.6245H157.365C157.254 21.6245 157.165 21.536 157.165 21.4269V15.8678C157.165 15.7587 157.076 15.6702 156.965 15.6702H154.429H151.894C151.783 15.6702 151.694 15.7587 151.694 15.8678V21.4269C151.694 21.536 151.604 21.6245 151.494 21.6245H148.106C147.995 21.6245 147.906 21.536 147.906 21.4269Z" fill="#B11F20"/>
<path d="M163.162 21.4269V7.30218C163.162 7.19289 163.252 7.10455 163.362 7.10455H174.326C174.436 7.10455 174.526 7.19289 174.526 7.30218V9.41384C174.526 9.52313 174.436 9.61147 174.326 9.61147H166.834C166.724 9.61147 166.634 9.70001 166.634 9.8091V12.7567C166.634 12.8658 166.724 12.9544 166.834 12.9544H174.326C174.436 12.9544 174.526 13.0427 174.526 13.152V15.4725C174.526 15.5818 174.436 15.6702 174.326 15.6702H166.834C166.724 15.6702 166.634 15.7587 166.634 15.8678V18.7109C166.634 18.82 166.724 18.9085 166.834 18.9085H174.326C174.436 18.9085 174.526 18.997 174.526 19.1061V21.4269C174.526 21.536 174.436 21.6245 174.326 21.6245H163.362C163.252 21.6245 163.162 21.536 163.162 21.4269Z" fill="#B11F20"/>
<path d="M194.096 21.4269V9.8091C194.096 9.70001 194.006 9.61147 193.896 9.61147H191.834H189.771C189.661 9.61147 189.572 9.52313 189.572 9.41384V7.30218C189.572 7.19289 189.661 7.10455 189.771 7.10455H195.832H201.892C202.003 7.10455 202.092 7.19289 202.092 7.30218V9.41384C202.092 9.52313 202.003 9.61147 201.892 9.61147H197.768C197.657 9.61147 197.568 9.70001 197.568 9.8091V21.4269C197.568 21.536 197.479 21.6245 197.368 21.6245H194.295C194.185 21.6245 194.096 21.536 194.096 21.4269Z" fill="#B11F20"/>
</svg>
