<svg width="14" height="12" viewBox="0 0 14 12" fill="none" xmlns="http://www.w3.org/2000/svg">
<path d="M1.4 11.2075C1.015 11.2075 0.685301 11.0715 0.410901 10.7995C0.136501 10.5274 -0.000465478 10.2008 1.18846e-06 9.81956V1.49173C1.18846e-06 1.11004 0.137201 0.783173 0.411601 0.51113C0.686001 0.239088 1.01547 0.103298 1.4 0.103761H12.6C12.985 0.103761 13.3147 0.239782 13.5891 0.511824C13.8635 0.783867 14.0005 1.1105 14 1.49173V9.81956C14 10.2013 13.8628 10.5281 13.5884 10.8002C13.314 11.0722 12.9845 11.208 12.6 11.2075H1.4ZM7 6.22818C7.05833 6.22818 7.1197 6.21939 7.1841 6.20181C7.2485 6.18423 7.30963 6.15832 7.3675 6.12409L12.32 3.0532C12.4133 2.99537 12.4833 2.92296 12.53 2.83598C12.5767 2.749 12.6 2.6537 12.6 2.55006C12.6 2.31873 12.5008 2.14524 12.3025 2.02957C12.1042 1.91391 11.9 1.91969 11.69 2.04692L7.52785 4.63361C7.20462 4.8345 6.79538 4.8345 6.47215 4.63361L2.31 2.04692C2.1 1.91969 1.89583 1.91691 1.6975 2.03859C1.49917 2.16027 1.4 2.33076 1.4 2.55006C1.4 2.66572 1.42333 2.76705 1.47 2.85403C1.51667 2.94101 1.58667 3.0074 1.68 3.0532L6.6325 6.12409C6.69083 6.15879 6.7522 6.18493 6.8166 6.20251C6.881 6.22009 6.94213 6.22865 7 6.22818Z" fill="#F6F6F6"/>
</svg>
