<svg width="15" height="15" viewBox="0 0 15 15" fill="none" xmlns="http://www.w3.org/2000/svg">
<path d="M7.5 0C3.35786 0 0 3.35786 0 7.5C0 11.6421 3.35786 15 7.5 15C11.6421 15 15 11.6421 15 7.5C15 3.35786 11.6421 0 7.5 0ZM4.80469 2.97913C4.95921 2.97001 5.09889 3.06238 5.20477 3.22631L6.23016 5.17089C6.33813 5.40131 6.27677 5.64804 6.11573 5.81267L5.68395 6.24445C5.65873 6.26967 5.63357 6.29629 5.61836 6.32855C5.59261 6.38318 5.6046 6.44577 5.62214 6.50356C5.82344 7.16686 6.34425 7.77486 6.80605 8.19854C7.28808 8.64079 7.80616 9.23955 8.4787 9.3814C8.56183 9.40459 8.66366 9.4129 8.72315 9.35761L9.21758 8.85406C9.25168 8.81932 9.28769 8.78619 9.32905 8.76052C9.51079 8.64775 9.74672 8.60253 9.92677 8.70441C9.92936 8.70587 9.93229 8.70668 9.93527 8.70668C9.93828 8.70668 9.94125 8.70748 9.94384 8.70902L11.7901 9.7989C12.0617 9.96914 12.0899 10.2982 11.8954 10.4984L10.621 11.7627C10.4328 11.9557 10.1828 12.0206 9.9399 12.0209C8.86555 11.9887 7.85043 11.4614 7.01663 10.9195C5.648 9.92384 4.39259 8.68893 3.60444 7.19696C3.30216 6.57134 2.94708 5.77309 2.98096 5.07479C2.98399 4.81209 3.05506 4.55473 3.24006 4.3854L4.51447 3.11099C4.61375 3.02651 4.71196 2.9846 4.80469 2.97913Z" fill="#F6F6F6"/>
</svg>
