<svg width="15" height="15" viewBox="0 0 15 15" fill="none" xmlns="http://www.w3.org/2000/svg">
<path d="M13.8782 3.46866C11.6344 -0.000114665 7.05326 -1.03137 3.50055 1.12489C0.0413358 3.28116 -1.08057 7.9687 1.16324 11.4375C1.28215 11.6163 1.31862 11.8376 1.26343 12.0451L1.0462 12.862C0.848634 13.6049 1.52829 14.2836 2.27094 14.085L3.08114 13.8684C3.28829 13.813 3.50927 13.8496 3.68754 13.9687C4.90294 14.625 6.21183 15 7.52073 15C8.92311 15 10.3255 14.625 11.5409 13.875C15.0001 11.625 16.0285 7.03119 13.8782 3.46866ZM11.9149 10.6875C11.5544 11.2296 11.1072 11.5976 10.4894 11.7074C10.4427 11.7157 10.3952 11.7183 10.3478 11.7206C9.9814 11.7384 9.46118 11.8595 7.70771 11.1562C6.11834 10.4062 4.80945 9.18746 3.87452 7.7812C3.31357 7.12494 3.03309 6.28118 2.9396 5.43743C2.9396 4.68742 3.22008 4.03117 3.68754 3.56241C3.87452 3.37491 4.06151 3.28116 4.24849 3.28116H4.71595C4.90294 3.28116 5.08992 3.28116 5.18342 3.65616C5.33641 4.03969 5.67716 4.86255 5.796 5.20042C5.82785 5.29096 5.88553 5.38034 5.90288 5.47473C5.93103 5.62788 5.9022 5.82104 5.86542 5.97235C5.84384 6.06116 5.7941 6.13756 5.74437 6.18743C5.68424 6.24773 5.6241 6.34682 5.56396 6.4348C5.50326 6.52361 5.40718 6.57959 5.33368 6.65814C5.23982 6.75845 5.20891 6.89482 5.27691 7.03119C5.65088 7.59369 6.11834 8.1562 6.5858 8.62495C7.14676 9.09371 7.70771 9.46871 8.36216 9.74996C8.54914 9.84371 8.73613 9.84371 8.82962 9.65621C8.92311 9.46871 9.39057 8.99995 9.57756 8.81245C9.76454 8.62495 9.85804 8.62495 10.045 8.7187L11.5409 9.46871C11.6371 9.51697 11.7334 9.56522 11.8169 9.61348C11.9511 9.69107 12.0406 9.82578 12.06 9.97962C12.0898 10.2159 12.0543 10.4777 11.9149 10.6875Z" fill="#F6F6F6"/>
</svg>
