<svg width="24" height="24" viewBox="0 0 24 24" fill="none" xmlns="http://www.w3.org/2000/svg">
<g id="phone-solid 1" clip-path="url(#clip0_1613_206)">
<path id="Vector" d="M7.72969 1.15351C7.36875 0.281636 6.41719 -0.182427 5.50781 0.0660105L1.38281 1.19101C0.567188 1.41601 0 2.15664 0 3.00039C0 14.5973 9.40313 24.0004 21 24.0004C21.8438 24.0004 22.5844 23.4332 22.8094 22.6176L23.9344 18.4926C24.1828 17.5832 23.7188 16.6316 22.8469 16.2707L18.3469 14.3957C17.5828 14.077 16.6969 14.2973 16.1766 14.9395L14.2828 17.2504C10.9828 15.6894 8.31094 13.0176 6.75 9.71757L9.06094 7.82851C9.70312 7.30351 9.92344 6.42226 9.60469 5.6582L7.72969 1.1582V1.15351Z" fill="#B11F20"/>
</g>
<defs>
<clipPath id="clip0_1613_206">
<rect width="24" height="24" fill="white"/>
</clipPath>
</defs>
</svg>
