<svg width="34" height="34" viewBox="0 0 34 34" fill="none" xmlns="http://www.w3.org/2000/svg">
<ellipse cx="17.5066" cy="17" rx="16.4934" ry="17" fill="#B11F20"/>
<path d="M23.2675 18.7685C23.2675 23.4541 19.5214 27.2389 14.9172 27.2389C10.3129 27.2389 6.56686 23.4541 6.56686 18.7685C6.56686 14.0828 10.3129 10.298 14.9172 10.298C19.5214 10.298 23.2675 14.0828 23.2675 18.7685Z" stroke="white" stroke-width="1.2"/>
<path d="M9.17552 16.6577L8.83777 13.7483L11.7649 13.6342L13.0596 14.7181L11.0894 14.8893L19.3643 21.849L19.1954 19.8524L20.4901 20.9933L20.8841 23.9597L17.957 24.1309L16.6623 22.9899L18.6325 22.8188L10.3576 15.8591L10.5265 17.7987L9.17552 16.6577Z" fill="white"/>
<path d="M13.4588 6.73155H2.30813C1.42788 6.73155 0.667291 7.34658 0.483065 8.20734C0.234421 9.36907 1.12009 10.4644 2.30813 10.4644H13.3188C14.8292 10.4644 16.3227 10.7821 17.7024 11.3968L18.3004 11.6633C19.243 12.0833 20.0967 12.6794 20.8157 13.4196C22.2853 14.9326 23.1074 16.9587 23.1074 19.0679V21.6628V30.8374C23.1074 32.2498 24.6304 33.1376 25.8594 32.4417C26.4374 32.1145 26.7947 31.5016 26.7947 30.8374V19.9545C26.6052 17.0352 25.7669 12.9911 23.4146 10.4644C21.3409 7.99402 18.1753 6.84679 13.4588 6.73155Z" fill="white"/>
</svg>
