<svg width="34" height="34" viewBox="0 0 34 34" fill="none" xmlns="http://www.w3.org/2000/svg">
<ellipse cx="17.0223" cy="16.8328" rx="16.8882" ry="16.8328" fill="#B11F20"/>
<path d="M15.167 7.2459H30.9822C31.8478 8.63284 32.3036 9.41234 32.8264 10.8431C33.6003 12.7152 33.871 13.8522 34 16.0703H15.167V12.8665H12.8198V17.2506C15.2932 19.2824 16.3236 20.8455 17.57 24.3326C18.4975 28.0778 17.9816 30.1316 16.62 33.7752L15.3346 34L14.3287 33.5504C15.1979 32.9356 17.6065 25.9304 13.7699 21.2974C9.93325 16.6644 5.02958 15.7449 0.189978 18.0375C-0.0340223 17.1501 -0.0910311 16.6488 0.189978 15.733C4.07564 14.2785 6.3211 14.4006 10.4168 15.9016V10.5059H15.167V7.2459Z" fill="white"/>
<ellipse cx="5.29219" cy="22.2192" rx="3.29225" ry="3.28146" fill="white"/>
<ellipse cx="10.2923" cy="28.1995" rx="3.29225" ry="3.28146" fill="white"/>
</svg>
