<svg width="16" height="16" viewBox="0 0 16 16" fill="none" xmlns="http://www.w3.org/2000/svg">
<path d="M8.19443 0C3.97776 0 0.555542 3.42222 0.555542 7.63889C0.555542 11.8556 3.97776 15.2778 8.19443 15.2778C12.4111 15.2778 15.8333 11.8556 15.8333 7.63889C15.8333 3.42222 12.4111 0 8.19443 0ZM11.7389 5.19445C11.6243 6.40139 11.1278 9.33472 10.8757 10.6868C10.7687 11.2597 10.5548 11.4507 10.3562 11.4736C9.91318 11.5118 9.57707 11.1833 9.14929 10.9007C8.47707 10.4576 8.09513 10.1826 7.44582 9.75486C6.68957 9.25833 7.17846 8.98333 7.61388 8.54028C7.72846 8.4257 9.68402 6.64583 9.72221 6.48542C9.72752 6.46112 9.72681 6.4359 9.72015 6.41193C9.7135 6.38797 9.70109 6.366 9.68402 6.34792C9.63818 6.30972 9.57707 6.325 9.5236 6.33264C9.45485 6.34792 8.3854 7.05833 6.29999 8.46389C5.99443 8.67014 5.71943 8.77708 5.47499 8.76944C5.19999 8.76181 4.68054 8.61667 4.29096 8.48681C3.80971 8.33403 3.4354 8.25 3.46596 7.98264C3.48124 7.84514 3.67221 7.70764 4.03124 7.5625C6.26179 6.59236 7.74374 5.9507 8.48471 5.64514C10.6083 4.75903 11.0437 4.60625 11.334 4.60625C11.3951 4.60625 11.5403 4.62153 11.6319 4.69792C11.6581 4.71885 11.678 4.74248 11.6931 4.76695C11.744 4.84914 11.7366 4.95316 11.7397 5.04978C11.7412 5.0972 11.7421 5.14863 11.7389 5.19445Z" fill="#F6F6F6"/>
</svg>
