<svg width="16" height="17" viewBox="0 0 16 17" fill="none" xmlns="http://www.w3.org/2000/svg">
<path fill-rule="evenodd" clip-rule="evenodd" d="M11.7991 0.42868C9.2421 -0.142893 6.59046 -0.142893 4.03348 0.42868L3.75797 0.489634C3.03872 0.650441 2.37813 1.00749 1.84958 1.52112C1.32103 2.03475 0.945217 2.68484 0.763885 3.39919C0.115733 5.95321 0.115733 8.62866 0.763885 11.1827C0.936813 11.8639 1.2868 12.4874 1.77836 12.9898C2.12078 13.3398 2.52342 13.6224 2.96519 13.8251C3.31839 13.9871 3.60395 14.2885 3.66816 14.6718L3.94083 16.2996C3.95289 16.3712 3.98394 16.4383 4.03075 16.4939C4.07755 16.5495 4.13839 16.5915 4.20694 16.6155C4.27549 16.6396 4.34923 16.6448 4.4205 16.6307C4.49176 16.6166 4.55794 16.5837 4.61214 16.5353L6.52064 14.828C6.71969 14.65 6.98165 14.5603 7.24853 14.5703C8.77639 14.6276 10.3059 14.4879 11.7991 14.154L12.0754 14.093C12.7947 13.9322 13.4552 13.5752 13.9838 13.0616C14.5123 12.5479 14.8882 11.8978 15.0695 11.1835C15.7176 8.62946 15.7176 5.95403 15.0695 3.40001C14.8881 2.68555 14.5122 2.03538 13.9835 1.52175C13.4548 1.00811 12.794 0.65112 12.0746 0.490447L11.7991 0.42868ZM4.71867 3.33299C4.71881 3.33306 4.71874 3.33326 4.71859 3.33324C4.56969 3.31176 4.41795 3.34117 4.28792 3.41662C4.28468 3.4185 4.28102 3.41951 4.27728 3.41951C4.27357 3.41951 4.26992 3.4205 4.26672 3.42238C3.9639 3.60072 3.69088 3.82485 3.45807 4.08838C3.26302 4.31351 3.15736 4.54107 3.12973 4.76051C3.11383 4.88769 3.12437 5.01644 3.16058 5.13837C3.16214 5.14363 3.16573 5.14804 3.17053 5.15071C3.17513 5.15326 3.17862 5.15744 3.18032 5.16243C3.39941 5.80414 3.6846 6.42162 4.03267 7.00282C4.4816 7.81937 5.03366 8.5748 5.67526 9.25051C5.68008 9.25559 5.68453 9.261 5.68856 9.26672L5.6891 9.26748C5.69765 9.27959 5.70809 9.29025 5.72003 9.29904C5.72857 9.30534 5.73637 9.3126 5.74325 9.32069L5.74403 9.32159C5.74906 9.3275 5.75454 9.333 5.76043 9.33805L5.77434 9.34997C6.45437 9.9966 7.21418 10.5538 8.03534 11.0079C8.97194 11.518 9.54121 11.7594 9.88361 11.8606C9.88501 11.861 9.88592 11.8623 9.88592 11.8637C9.88592 11.8652 9.88687 11.8665 9.88824 11.8669C9.9873 11.8973 10.0776 11.9109 10.1687 11.9109C10.4601 11.8893 10.736 11.7709 10.9522 11.5744C11.2156 11.341 11.4386 11.0664 11.6123 10.761C11.6133 10.7593 11.6138 10.7574 11.6138 10.7555C11.6138 10.7537 11.6142 10.7519 11.6151 10.7503C11.7768 10.4424 11.7212 10.1524 11.4862 9.95545C11.0128 9.5418 10.5008 9.1744 9.95744 8.85827C9.59334 8.66078 9.22355 8.78025 9.07401 8.98018L8.75461 9.38329C8.60167 9.56955 8.33305 9.55831 8.29702 9.5559C8.29431 9.55572 8.29173 9.55634 8.2894 9.55774C8.28649 9.55948 8.28292 9.55998 8.27963 9.55913C6.31279 9.05424 5.62591 7.22895 5.49659 6.82593C5.47951 6.7727 5.46943 6.71877 5.47319 6.66299C5.48006 6.56103 5.5132 6.38961 5.65081 6.28518L6.05067 5.96334C6.24247 5.8073 6.37576 5.43832 6.17014 5.07422C5.85611 4.53031 5.48943 4.01855 5.0754 3.5463C4.9853 3.43541 4.85903 3.3598 4.71876 3.33273C4.7186 3.3327 4.71853 3.33292 4.71867 3.33299ZM8.46934 2.35647C8.36157 2.35647 8.25821 2.39928 8.182 2.47549C8.10579 2.55169 8.06298 2.65505 8.06298 2.76283C8.06298 2.8706 8.10579 2.97396 8.182 3.05017C8.25821 3.12638 8.36157 3.16919 8.46934 3.16919C9.49744 3.16919 10.3508 3.50485 11.0262 4.14853C11.3732 4.50044 11.6438 4.91737 11.821 5.37412C11.999 5.83168 12.0803 6.32013 12.0592 6.80939C12.0569 6.86275 12.0652 6.91604 12.0836 6.9662C12.1019 7.01636 12.13 7.06241 12.1661 7.10173C12.2391 7.18114 12.3407 7.22829 12.4484 7.23282C12.5562 7.23735 12.6614 7.19887 12.7408 7.12587C12.8202 7.05286 12.8674 6.9513 12.8719 6.84352C12.8971 6.24169 12.7972 5.64117 12.5785 5.07991C12.3588 4.51599 12.0258 4.00314 11.6 3.57312L11.5918 3.56499C10.7539 2.76445 9.69331 2.35647 8.46934 2.35647ZM8.44171 3.69259C8.33393 3.69259 8.23057 3.7354 8.15436 3.81161C8.07816 3.88782 8.03534 3.99118 8.03534 4.09895C8.03534 4.20672 8.07816 4.31008 8.15436 4.38629C8.23057 4.4625 8.33393 4.50531 8.44171 4.50531H8.45552C9.19673 4.55814 9.73638 4.80521 10.1143 5.21076C10.502 5.6285 10.7027 6.14783 10.6873 6.78989C10.6848 6.89766 10.7252 7.002 10.7997 7.07997C10.8741 7.15793 10.9765 7.20312 11.0843 7.20559C11.1921 7.20807 11.2964 7.16764 11.3744 7.09318C11.4523 7.01873 11.4975 6.91635 11.5 6.80858C11.5195 5.96607 11.2482 5.23889 10.7106 4.6587C10.7102 4.65832 10.71 4.65782 10.71 4.65729C10.71 4.65677 10.7098 4.65627 10.7095 4.65588C10.1593 4.06623 9.40448 3.75433 8.49616 3.6934L8.48234 3.69177L8.44171 3.69259ZM8.42626 5.0539C8.37188 5.0491 8.31709 5.05531 8.26516 5.07216C8.21323 5.089 8.16523 5.11614 8.12402 5.15195C8.08281 5.18776 8.04923 5.2315 8.0253 5.28057C8.00137 5.32964 7.98758 5.38303 7.98474 5.43755C7.98189 5.49207 7.99007 5.5466 8.00877 5.59789C8.02747 5.64918 8.05632 5.69618 8.09358 5.73608C8.13085 5.77597 8.17577 5.80795 8.22567 5.8301C8.27557 5.85225 8.32942 5.86412 8.384 5.865C8.72372 5.88288 8.94072 5.98529 9.07726 6.12264C9.21461 6.2608 9.31701 6.48267 9.33571 6.82971C9.33672 6.88424 9.3487 6.93801 9.37094 6.98782C9.39317 7.03762 9.42521 7.08244 9.46513 7.1196C9.50506 7.15676 9.55205 7.18551 9.60332 7.20412C9.65459 7.22273 9.70908 7.23084 9.76355 7.22794C9.81802 7.22505 9.87134 7.21122 9.92035 7.18728C9.96936 7.16335 10.013 7.12979 10.0488 7.08861C10.0846 7.04742 10.1117 6.99947 10.1285 6.94759C10.1454 6.89571 10.1516 6.84097 10.1468 6.78663C10.1208 6.299 9.96801 5.86825 9.65511 5.55129C9.34058 5.23433 8.91228 5.07991 8.42626 5.0539Z" fill="#F6F6F6"/>
</svg>
